<?xml version="1.0" encoding="utf-8"?>
<!-- Svg Vector Icons : http://www.onlinewebfonts.com/icon -->
<!DOCTYPE svg PUBLIC "-//W3C//DTD SVG 1.1//EN" "http://www.w3.org/Graphics/SVG/1.1/DTD/svg11.dtd">
<svg version="1.1" xmlns="http://www.w3.org/2000/svg" xmlns:xlink="http://www.w3.org/1999/xlink" x="0px" y="0px" viewBox="0 0 1000 1000" enable-background="new 0 0 1000 1000" xml:space="preserve">
<metadata> Svg Vector Icons : http://www.onlinewebfonts.com/icon </metadata>
<g><g transform="translate(0.000000,511.000000) scale(0.100000,-0.100000)"><path d="M3866.9,4998.5c-34-10-82-44-104-76c-40-56-42-84-42-772v-714l68-68c48-48,86-68,132-68c80,0,170,52,198,114c14,30,22,202,22,446c0,220,6,400,16,400c8,0,152-138,320-306l304-306l-92-88c-182-178-388-518-388-642c0-86,112-198,200-198c104,0,164,52,260,226c62,116,140,214,260,334c196,196,328,280,574,366c240,84,578,100,820,38c644-164,1100-708,1140-1364.1c36-586-278-1132.1-810-1410.1c-132-68-184-134-184-230c0-94,58-170,150-200c64-20,84-18,200,38c156,72,274,152,450,304l134,114l306-306l308-308l-426-6l-426-6l-58-66c-104-116-66-282,78-342c40-16,252-22,752-18l696.1,6l58,66l58,64v702c0,782-2,796-134,850c-92,40-172,20-236-56l-50-60v-422v-424l-342,342l-342,342l62,122c34,68,86,202,116,298c48,160,54,206,54,506c2,284-4,354-44,498c-56,206-152,416-262,578c-44,68-82,130-82,138c0,20,804.1,826,826,826c8,0,14-180,14-400c0-432,10-484,102-532c96-48,174-36,250,40l68,68v708c0,664-2,710-40,770c-24,40-62,70-104,80c-36,8-380,12-762,6l-698-10l-48-56c-84-98-50-278,62-330c34-16,186-24,456-24h404l-422-422l-422-422l-118,80c-576,390-1306.1,444-1910.1,142l-112-56l-338,340l-338,338h408c342,0,414,6,462,34c116,68,136,232,42,328l-58,58h-660c-364,0-672,4-688,8C3943,5012.5,3903,5008.5,3866.9,4998.5z"/><path d="M5921,2598.3c-28-10-796-766-1710.1-1676.1C2890.9-395.8,2536.9-737.8,2486.9-749.8c-76-16-184,30-222,92c-16,24-108,552-206,1174.1c-130,824-190,1156.1-220,1218.1c-78,162-280,286-464,286c-62,0-92-14-146-68l-70-70l8-2206.1c6-2422.1-2-2268.1,126-2594.1c122-310,210-424,708-928c522-530,646-634,910-764c294-144,462-180,840-180c250,0,350,8,460,38c206,56,428,154,592,262c210,140,1996.1,1770.1,2054.1,1874.1c50,94,58,224,18,322c-38,90-178,210-264,226c-100,18-240,0-294-40c-26-18-76-56-114-82c-44-34-94-50-146-50c-152,0-246,166-174,306c12,24,142,166,288,314c220,222,270,286,290,358c42,160-12,308-150,414c-60,44-102,58-200,64c-172,12-232-26-530-324c-152-154-274-260-312-272c-122-42-268,68-268,200c0,82,62,154,510,600c250,248,470,484,492,524c128,248-58,556-338,556c-56,0-126-10-158-22c-30-10-272-234-536-496c-264-264-500-488-524-500c-144-74-334,78-296,236c8,34,422,462,1138.1,1182.1c1170,1174.1,1172,1178.1,1172,1332.1c0,76-42,188-94,250C6267.1,2600.4,6061,2652.4,5921,2598.3z"/></g></g>
</svg>