<?xml version="1.0" standalone="no"?>
<!DOCTYPE svg PUBLIC "-//W3C//DTD SVG 20010904//EN"
 "http://www.w3.org/TR/2001/REC-SVG-20010904/DTD/svg10.dtd">
<svg version="1.0" xmlns="http://www.w3.org/2000/svg"
 width="628.000000pt" height="1481.000000pt" viewBox="0 0 628.000000 1481.000000"
 preserveAspectRatio="xMidYMid meet">
<metadata>
Created by potrace 1.16, written by Peter Selinger 2001-2019
</metadata>
<g transform="translate(0.000000,1481.000000) scale(0.100000,-0.100000)"
fill="#000000" stroke="none">
<path d="M4108 14067 c34 -36 28 -47 -25 -48 -27 -1 -57 -3 -68 -5 -11 -2 -35
-7 -53 -10 -24 -5 -38 -2 -52 11 -10 9 -29 15 -42 13 -22 -4 -22 -5 -3 -12 11
-5 38 -16 60 -26 22 -10 47 -20 55 -23 45 -16 -34 -4 -88 13 -91 29 -106 24
-37 -12 50 -26 57 -32 40 -38 -18 -6 -17 -9 12 -23 18 -10 56 -21 85 -25 52
-7 49 -8 -87 -27 -77 -10 -153 -20 -170 -20 -69 -2 -86 -5 -80 -15 4 -6 10 -8
14 -5 11 6 354 15 348 9 -3 -3 -48 -16 -102 -29 -89 -22 -243 -92 -234 -106 2
-3 -11 -22 -28 -43 -32 -36 -43 -66 -24 -66 6 0 12 4 16 10 3 5 20 19 38 32
l32 23 -22 -35 c-12 -19 -27 -36 -33 -36 -5 -1 -13 -3 -17 -4 -5 -1 -12 -2
-16 -1 -4 1 -19 -22 -32 -51 l-24 -53 3 80 4 80 56 51 c32 29 89 69 129 89
l72 37 -55 -7 c-30 -4 -71 -8 -91 -10 -77 -5 -218 -74 -212 -103 2 -6 -16 -46
-38 -89 -41 -76 -42 -77 -36 -35 3 23 1 42 -4 42 -5 0 -9 -5 -9 -12 0 -6 -2
-9 -5 -6 -7 7 27 68 38 68 4 0 7 6 7 14 0 8 17 29 38 46 32 27 33 31 12 25
l-25 -8 25 25 c22 22 68 42 145 62 11 3 -2 4 -30 1 -27 -2 -77 -13 -110 -23
-58 -19 -184 -81 -212 -103 -16 -14 -80 -147 -98 -204 l-13 -40 -1 61 c-1 58
2 66 43 122 24 33 65 76 90 95 32 24 56 55 79 101 37 73 16 66 -28 -10 -17
-29 -30 -41 -40 -37 -9 3 -22 0 -30 -7 -8 -7 -21 -10 -29 -7 -7 3 -20 0 -27
-6 -8 -7 4 8 26 32 45 49 26 43 -49 -14 -25 -19 -46 -30 -46 -25 0 6 3 10 8
10 4 1 27 19 52 42 53 48 17 33 -49 -21 -54 -44 -42 -11 14 38 58 51 21 35
-44 -19 -73 -60 -107 -104 -131 -167 -11 -26 -19 -41 -19 -33 -1 36 51 121
118 193 79 84 81 99 4 38 -72 -58 -99 -90 -128 -154 -15 -31 -31 -55 -36 -51
-5 3 -18 -15 -29 -40 -10 -25 -22 -46 -25 -46 -3 0 2 17 11 38 9 20 19 46 22
57 4 17 2 16 -14 -5 -22 -28 -48 -81 -46 -92 1 -5 -3 -8 -8 -8 -6 0 -10 -26
-10 -59 0 -54 -2 -60 -22 -64 l-23 -4 23 -8 c27 -9 28 -22 3 -30 -21 -6 -78
-75 -62 -75 5 0 13 5 16 10 3 6 11 10 17 10 5 0 -4 -16 -21 -35 -32 -37 -39
-55 -20 -55 7 0 9 -12 4 -36 -4 -24 -3 -34 4 -29 6 3 11 1 11 -6 0 -8 5 -7 17
2 11 10 14 10 9 2 -10 -18 -2 -16 36 7 43 26 61 26 53 0 -5 -14 -2 -20 9 -20
9 0 16 -2 16 -5 0 -3 -27 -32 -60 -66 -64 -65 -71 -68 -40 -17 20 34 26 68 12
68 -11 0 -47 -39 -62 -68 -10 -21 -17 -23 -47 -17 l-36 6 34 -43 c18 -24 26
-37 16 -29 -25 20 -34 5 -12 -19 10 -11 13 -20 7 -20 -6 0 -19 11 -28 25 -9
14 -20 22 -26 19 -11 -7 14 -37 56 -66 22 -16 30 -18 36 -8 13 21 23 -26 11
-49 -6 -11 -11 -35 -11 -53 0 -18 -4 -48 -9 -66 -6 -20 -6 -30 0 -27 5 4 5 -5
-1 -20 -27 -71 -3 -205 53 -305 30 -52 120 -168 157 -200 9 -9 25 -49 35 -90
10 -41 26 -93 35 -115 21 -45 30 -139 35 -335 5 -249 25 -300 220 -570 49 -69
96 -136 103 -148 21 -37 13 -42 -18 -11 -28 29 -30 29 -59 14 -39 -20 -93 -75
-146 -150 -49 -70 -61 -97 -39 -88 7 3 14 9 14 13 0 10 50 20 67 13 7 -3 10
-9 7 -14 -3 -5 2 -9 10 -9 9 0 16 7 16 16 0 11 5 14 16 10 9 -3 19 -6 24 -6 4
0 11 -11 14 -25 10 -38 26 -20 26 27 0 31 4 41 19 45 12 3 17 11 14 19 -3 8
-1 14 5 14 5 0 23 -33 39 -72 16 -40 34 -72 40 -71 6 1 15 -12 18 -29 4 -17
16 -40 26 -52 24 -25 24 -19 0 35 -20 45 -38 139 -27 139 3 0 45 -11 92 -25
238 -69 472 -27 609 110 55 56 112 157 122 220 3 19 10 32 15 29 9 -6 108
-207 108 -218 0 -3 5 -17 11 -33 7 -15 11 -41 10 -58 -1 -16 3 -43 8 -60 8
-25 9 -16 10 47 1 55 -3 79 -12 85 -16 9 -31 83 -17 83 9 0 25 76 21 98 -1 6
4 12 10 12 7 0 4 6 -6 14 -15 11 -19 26 -18 80 0 62 -4 72 -31 67 -5 -1 -6 5
-3 13 4 9 2 18 -4 22 -6 3 -8 12 -5 20 3 8 -4 19 -15 25 -11 6 -18 17 -15 24
2 7 -2 16 -10 19 -10 4 -13 13 -9 25 3 10 -2 37 -10 59 -13 31 -14 45 -5 61
10 20 30 29 30 14 0 -5 27 -41 60 -82 32 -41 57 -78 54 -83 -3 -4 0 -8 6 -8
16 0 151 -211 143 -224 -3 -6 -2 -8 2 -3 5 4 16 0 25 -8 22 -20 63 -29 57 -12
-3 7 -10 11 -17 9 -11 -2 -11 0 -1 12 8 9 8 16 2 20 -6 4 -8 13 -5 21 4 10 0
13 -16 10 -18 -3 -20 -2 -10 10 7 8 8 20 4 27 -5 7 -9 18 -10 23 0 6 -2 16 -2
24 -2 11 -5 11 -19 0 -10 -8 -14 -9 -10 -2 4 6 3 14 -3 18 -5 3 -10 12 -10 18
0 7 4 6 10 -3 8 -12 10 -12 10 -1 0 8 -8 20 -17 27 -14 11 -14 13 -3 11 8 -2
12 -2 8 0 -5 3 -6 17 -3 31 5 25 5 25 -4 5 -15 -33 -19 -28 -15 20 2 34 1 38
-7 19 -7 -19 -29 -23 -29 -6 0 3 5 2 10 -1 6 -3 10 1 10 10 0 9 -4 13 -10 10
-5 -3 -10 -1 -10 4 0 6 6 11 13 11 9 0 9 2 -1 8 -7 5 -10 16 -6 28 6 18 6 18
-9 -1 -8 -11 -13 -24 -10 -30 4 -6 2 -6 -3 -2 -9 9 -10 13 -13 43 0 8 -5 13
-10 9 -6 -3 -8 6 -5 22 5 26 5 26 -13 7 -10 -11 -17 -18 -15 -15 1 2 -6 13
-15 24 -10 11 -12 17 -5 13 7 -4 12 -1 12 8 0 10 -6 13 -16 9 -13 -5 -15 -1
-10 18 6 20 5 21 -4 6 -6 -9 -9 -21 -5 -26 3 -5 0 -13 -6 -17 -7 -4 -9 -3 -6
3 3 5 -3 22 -14 39 -21 32 -26 26 -8 -9 12 -22 12 -22 -8 -2 -23 23 -23 35 -3
60 8 9 15 23 16 31 1 7 12 27 24 43 39 56 79 159 96 248 9 48 30 147 47 218
26 113 31 155 35 315 2 106 8 188 14 191 7 4 7 13 0 25 -21 42 -22 128 -2 182
11 29 20 72 20 97 0 36 7 54 36 92 20 26 49 54 65 62 40 19 65 57 89 132 29
92 25 152 -7 111 -12 -16 -13 -16 -7 0 3 9 0 26 -8 37 -13 19 -15 18 -25 -22
-7 -23 -19 -51 -28 -62 -15 -19 -16 -19 -9 14 4 21 3 31 -4 27 -7 -4 -8 14 -5
53 3 34 1 66 -5 77 -10 17 -11 16 -12 -9 0 -34 -23 -92 -41 -102 -9 -6 -10 -3
-5 11 4 10 10 35 13 54 l5 35 -22 -42 c-12 -23 -37 -53 -55 -67 l-34 -26 26
72 c39 109 42 222 10 310 -13 37 -20 65 -16 62 5 -3 9 2 9 11 0 21 -51 85 -67
85 -7 0 -13 5 -13 10 0 6 -3 9 -7 8 -5 -2 -28 16 -52 40 -45 44 -74 55 -65 25
5 -17 5 -17 -6 -1 -14 22 -56 47 -45 26 5 -7 15 -21 23 -31 18 -20 9 -35 -12
-18 -8 7 -16 8 -18 4 -3 -4 -4 -3 -3 2 3 14 -31 56 -38 48 -4 -3 -1 8 5 25 10
27 9 34 -7 52 -26 28 -75 51 -97 44 -10 -3 -18 -1 -18 5 0 6 -4 11 -10 11 -18
0 -10 -29 10 -35 11 -3 25 -15 31 -26 6 -12 17 -18 25 -15 9 4 14 -2 14 -17 0
-18 -2 -19 -10 -7 -7 10 -12 11 -17 4 -11 -14 -43 -25 -54 -18 -6 3 -5 11 2
20 7 9 8 14 1 14 -6 0 -14 -4 -17 -10 -3 -5 -13 -10 -22 -10 -11 0 -9 5 7 18
28 22 21 54 -16 70 -37 17 -40 15 -16 -11z m322 -212 c0 -15 39 -85 47 -85 2
0 1 9 -2 20 -11 34 5 22 21 -17 11 -24 15 -60 13 -109 -2 -40 0 -76 4 -80 7
-8 9 18 8 101 -1 49 -1 49 14 25 8 -14 14 -39 15 -56 0 -16 7 -39 15 -50 14
-17 15 -12 10 56 l-5 75 17 -35 c20 -43 22 -124 4 -210 -16 -75 -28 -101 -70
-154 -38 -48 -39 -35 -2 57 30 77 49 159 33 142 -5 -5 -15 -28 -22 -50 -20
-64 -75 -154 -87 -141 -1 1 9 29 22 62 25 61 32 104 16 104 -5 0 -17 -21 -26
-47 -8 -27 -21 -55 -28 -64 -16 -20 -47 -32 -47 -18 0 7 -12 4 -27 -6 l-27
-18 24 39 c58 97 80 141 79 164 -1 24 -1 24 -12 -5 l-11 -30 -6 30 c-6 29 -7
28 -28 -29 -13 -32 -20 -66 -17 -75 3 -11 -8 -29 -30 -51 -19 -19 -35 -32 -35
-29 0 3 12 34 26 70 30 73 54 155 53 184 0 11 -9 -7 -21 -40 -26 -75 -42 -95
-32 -40 4 22 11 50 15 63 5 13 9 31 8 40 -1 27 -28 -39 -29 -70 0 -33 -54
-150 -77 -169 -15 -13 -14 -11 1 19 17 33 8 44 -14 17 -7 -9 -15 -14 -17 -12
-6 7 18 58 50 105 16 24 26 46 23 49 -3 3 4 22 16 42 l22 35 -26 -19 c-14 -11
-29 -27 -34 -36 -19 -35 -92 -135 -113 -153 -37 -34 -22 -2 25 52 52 59 50 66
-5 22 -20 -17 -50 -34 -67 -39 -16 -5 -38 -12 -48 -17 -15 -6 -17 -4 -11 6 5
9 0 7 -16 -3 -13 -9 -32 -17 -43 -17 -18 0 -17 2 7 28 14 15 40 35 57 45 29
18 36 14 31 -17 -3 -17 51 5 110 45 59 41 90 71 51 50 -38 -20 -34 -11 17 38
28 27 51 55 51 61 0 6 -11 -2 -24 -17 -14 -16 -43 -42 -65 -57 -22 -16 -39
-32 -36 -36 5 -9 -38 -40 -56 -40 -6 0 6 15 26 33 21 17 56 49 79 71 34 32 36
36 11 21 l-30 -18 31 34 c40 44 68 87 82 124 l12 30 -6 -35 c-3 -19 -8 -44
-11 -55 -12 -44 16 2 29 49 13 45 15 47 31 31 9 -9 17 -25 17 -36 0 -10 4 -19
9 -19 5 0 14 -17 20 -37 10 -37 10 -36 7 17 -2 30 -7 68 -11 84 -6 21 -5 27 4
22 6 -4 11 -13 11 -21z m-260 -99 c-14 -14 -61 -45 -105 -70 -44 -25 -76 -46
-70 -46 5 0 -22 -19 -60 -43 -39 -24 -95 -60 -125 -82 -49 -35 -53 -36 -37
-12 29 44 19 43 -28 -3 -24 -24 -47 -42 -49 -39 -3 3 6 24 20 47 26 44 126
120 132 102 3 -7 13 -5 28 5 13 8 36 23 51 33 53 34 11 -9 -48 -49 -33 -22
-58 -43 -55 -46 3 -3 39 14 80 38 41 24 70 46 66 49 -7 5 199 134 220 139 2 1
-7 -10 -20 -23z m-195 -656 c6 -5 60 -12 120 -15 167 -8 225 -19 225 -40 0 -8
4 -15 10 -15 9 0 6 -56 -6 -89 -2 -8 5 -33 16 -56 15 -31 29 -45 52 -51 39
-11 60 -40 38 -54 -8 -5 -48 -17 -89 -26 -41 -9 -86 -23 -100 -30 -14 -8 -32
-14 -38 -14 -7 0 -13 -4 -13 -8 0 -11 -83 -32 -126 -32 -19 0 -44 5 -56 11
-11 6 -32 13 -46 15 -15 3 -52 13 -82 23 -30 10 -91 26 -135 36 -139 30 -140
30 -143 51 -3 21 36 45 95 58 55 12 60 30 19 72 -42 44 -46 76 -13 125 16 24
35 37 67 45 49 14 186 10 205 -6z m-45 -663 c0 -14 -32 -81 -50 -102 -6 -7
-12 -34 -14 -59 -1 -26 -9 -54 -19 -63 -20 -20 -89 -33 -192 -36 -76 -2 -82 0
-126 31 -50 36 -83 93 -77 133 3 27 -1 26 223 29 145 1 186 11 217 50 25 31
38 37 38 17z m446 -52 c58 7 96 -6 119 -41 17 -27 9 -57 -31 -116 -30 -42 -60
-53 -113 -38 -75 20 -95 49 -125 181 l-6 26 53 -9 c28 -5 75 -6 103 -3z m-526
-256 c-28 -67 -22 -107 24 -164 19 -23 32 -45 29 -49 -4 -3 5 -7 18 -7 37 -2
-69 -27 -119 -28 -51 -1 -73 16 -71 56 1 15 -1 40 -5 54 -6 21 3 38 66 111 40
47 75 84 77 82 2 -2 -6 -27 -19 -55z m357 -352 c-8 -27 -62 -42 -152 -42 -92
0 -155 13 -190 39 -18 14 -1 15 163 15 136 0 182 -3 179 -12z"/>
<path d="M3623 13935 c-17 -7 -58 -30 -90 -50 l-58 -37 30 32 c35 38 23 33
-60 -28 -64 -47 -105 -93 -69 -77 111 49 256 80 466 101 71 7 80 18 25 29 -17
4 -41 13 -52 19 -32 20 -155 27 -192 11z"/>
<path d="M2761 13831 l-32 -49 15 -88 c16 -89 37 -127 77 -137 13 -3 20 2 25
17 3 11 15 31 27 43 16 19 20 37 21 107 1 68 -1 83 -11 74 -9 -7 -13 -7 -13 1
0 7 -8 8 -27 0 -22 -8 -30 -7 -39 5 -6 9 -14 13 -17 9 -4 -3 -7 -1 -7 5 0 5 4
12 9 14 12 5 24 48 13 48 -6 0 -24 -22 -41 -49z"/>
<path d="M2636 11265 c-22 -19 -35 -35 -29 -35 7 0 8 -12 3 -36 -5 -20 -4 -47
1 -60 4 -13 5 -24 2 -24 -4 0 3 -7 15 -16 22 -15 74 -116 71 -137 -3 -16 5
-36 78 -197 11 -25 26 -60 34 -77 8 -18 18 -33 23 -33 10 0 8 8 -33 160 -17
63 -45 188 -61 278 -29 153 -45 213 -59 212 -3 -1 -24 -16 -45 -35z"/>
<path d="M4504 11004 c-11 -26 -18 -81 -22 -166 -4 -114 -3 -128 12 -128 9 0
16 6 16 14 0 7 9 16 20 19 11 3 20 13 20 22 0 11 5 15 15 11 8 -3 15 0 15 7 0
7 9 18 20 25 23 14 36 6 59 -37 7 -12 14 -21 17 -19 5 5 -125 259 -142 277
-12 13 -16 9 -30 -25z"/>
<path d="M2025 9777 c2 -32 8 -152 11 -265 6 -196 5 -208 -14 -229 -26 -30
-29 -29 -46 11 -8 19 -24 39 -35 46 -12 6 -21 21 -21 33 0 12 -11 35 -24 52
-21 26 -26 28 -40 16 -21 -17 -48 -80 -40 -92 3 -5 -4 -22 -16 -38 -11 -17
-20 -33 -18 -38 1 -4 -2 -37 -6 -73 -3 -36 -9 -90 -11 -120 -3 -30 -7 -73 -10
-95 -12 -86 -23 -210 -19 -217 3 -4 -3 -33 -12 -64 -16 -55 -17 -56 -47 -50
-17 4 -35 12 -39 19 -6 9 -8 9 -8 -1 0 -9 -7 -11 -20 -7 -28 9 -50 -11 -50
-44 0 -32 34 -133 84 -250 20 -47 34 -86 32 -88 -2 -3 -55 41 -117 96 -62 55
-130 109 -151 121 -36 20 -38 20 -38 3 0 -16 34 -81 49 -93 9 -8 51 -68 51
-75 0 -3 7 -13 16 -22 36 -40 95 -127 100 -150 4 -13 3 -28 -2 -33 -8 -8 -64
-17 -116 -19 -11 -1 -18 -9 -18 -20 0 -14 13 -24 45 -37 71 -27 60 -38 -50
-49 -33 -3 -95 -8 -139 -10 -52 -3 -84 -10 -96 -20 -9 -8 -22 -15 -28 -15 -7
0 -12 -5 -12 -11 0 -6 8 -8 18 -5 38 11 188 16 201 7 11 -7 5 -11 -25 -16 -94
-16 -354 -97 -407 -126 -10 -5 -55 -23 -101 -40 -46 -16 -94 -41 -106 -54 -34
-36 -7 -32 65 10 96 56 140 73 305 122 145 42 160 45 242 40 48 -3 102 -12
120 -20 18 -9 50 -18 71 -22 32 -5 37 -9 32 -26 -4 -10 -1 -36 6 -57 8 -20 14
-66 14 -102 1 -86 12 -128 36 -135 10 -4 19 -10 19 -15 0 -5 19 -27 41 -50 41
-41 41 -41 36 -13 -26 146 -40 254 -42 337 -1 74 -5 102 -17 110 -28 21 -25
41 22 131 37 72 49 105 54 160 5 48 21 101 51 170 24 55 52 143 64 195 11 52
27 118 35 145 12 46 14 48 21 23 3 -14 3 -34 -2 -45 -14 -29 -8 -65 20 -128
20 -42 27 -74 27 -119 0 -33 7 -101 15 -151 9 -49 25 -157 35 -240 26 -193 27
-198 62 -340 24 -98 30 -140 30 -228 -1 -59 -4 -117 -7 -127 -4 -11 -2 -20 3
-20 5 0 12 -28 15 -62 7 -69 28 -188 90 -488 14 -69 9 -127 -11 -122 -7 1 -12
-8 -12 -21 0 -12 -7 -33 -16 -46 -11 -15 -16 -42 -15 -77 1 -39 -3 -54 -12
-54 -24 0 -47 -36 -51 -80 -3 -33 -12 -49 -35 -69 -17 -15 -31 -32 -31 -39 0
-7 -4 -12 -10 -12 -5 0 -12 -11 -16 -24 -4 -18 -11 -23 -22 -19 -14 5 -15 3
-4 -8 16 -18 15 -36 -3 -36 -19 0 -57 114 -49 145 4 14 0 29 -10 41 -11 12
-14 27 -10 48 4 20 1 35 -10 45 -18 19 -29 64 -61 256 -13 79 -33 189 -44 245
-32 167 -39 221 -35 252 3 23 2 26 -4 10 -7 -15 -10 -11 -15 25 -4 25 -9 56
-13 70 -4 20 -3 22 5 10 6 -8 11 -10 11 -4 0 5 -5 15 -12 22 -9 9 -8 16 4 29
8 10 18 26 21 35 5 15 2 16 -19 8 -16 -6 -32 -6 -43 -1 -9 5 -136 11 -282 12
l-264 3 -80 -27 c-121 -41 -197 -85 -217 -127 -19 -39 -25 -77 -8 -50 8 13 10
13 10 -2 0 -17 6 -32 51 -133 43 -97 50 -117 40 -111 -5 4 -12 2 -16 -4 -8
-13 6 -110 16 -110 14 0 11 58 -3 62 -9 3 -8 8 2 20 13 13 28 -11 127 -208 62
-123 113 -232 113 -243 0 -10 10 -30 21 -45 21 -26 100 -180 104 -201 1 -5 3
-15 3 -22 1 -6 9 -18 17 -27 8 -8 68 -108 131 -223 64 -114 131 -230 148 -258
17 -27 50 -88 73 -135 23 -47 64 -111 92 -144 40 -48 53 -73 72 -141 25 -89
43 -105 32 -28 -4 34 -3 44 5 39 7 -4 12 -14 12 -22 0 -9 16 -49 35 -91 19
-41 32 -79 29 -84 -3 -5 0 -9 6 -9 7 0 4 -12 -6 -29 -10 -17 -21 -28 -26 -25
-4 3 -8 0 -8 -5 0 -21 -19 -10 -28 17 l-10 27 -1 -27 c-1 -16 3 -28 8 -28 5 0
7 -27 5 -60 -3 -39 -1 -60 6 -60 6 0 8 -5 5 -11 -4 -5 3 -19 16 -30 24 -21 39
-24 39 -10 0 6 12 6 30 0 17 -6 30 -15 30 -20 0 -5 5 -9 11 -9 5 0 7 5 4 10
-3 6 1 10 9 10 20 0 20 -1 1 -36 -8 -16 -15 -23 -15 -15 0 8 -3 12 -6 8 -3 -3
0 -15 8 -26 18 -25 30 -17 22 14 -3 13 -1 26 5 29 6 4 11 0 11 -10 0 -16 1
-16 15 2 13 17 14 16 4 -14 -6 -17 -15 -35 -20 -38 -5 -3 -9 -11 -9 -17 1 -7
9 -2 19 10 30 36 34 27 8 -14 l-24 -38 28 -1 c15 -1 30 5 33 12 7 17 -10 18
-18 2 -3 -7 -5 -4 -3 6 4 33 24 28 41 -9 10 -21 22 -33 28 -29 7 5 9 2 5 -9
-6 -17 24 -33 42 -22 6 3 18 -4 29 -15 10 -11 29 -19 43 -18 35 3 90 -32 84
-53 -3 -9 1 -19 9 -22 9 -4 12 -14 9 -25 -2 -11 0 -23 6 -26 6 -4 13 4 17 19
3 14 10 25 14 25 19 0 15 -17 -11 -44 -26 -28 -27 -28 -34 -7 -3 11 -11 21
-16 21 -5 0 -9 9 -9 21 0 11 -4 17 -10 14 -5 -3 -21 2 -35 11 -21 14 -28 15
-38 4 -9 -10 -9 -11 0 -6 6 3 14 2 18 -4 3 -5 -2 -10 -12 -10 -14 0 -15 -2 -4
-9 8 -5 20 -7 27 -4 8 3 11 -2 9 -14 -2 -10 -4 -21 -4 -25 -1 -5 -8 -8 -17 -8
-8 0 -12 5 -9 10 9 15 -5 12 -22 -5 -9 -9 -24 -13 -37 -10 -19 5 -19 5 -3 -5
9 -6 26 -8 37 -5 14 5 20 2 20 -9 0 -9 -4 -16 -9 -16 -5 0 -14 -13 -19 -30 -6
-16 -7 -29 -2 -27 5 1 20 -13 34 -32 34 -45 34 -25 1 24 -15 20 -23 40 -20 43
3 4 10 1 14 -6 4 -7 16 -10 27 -7 17 6 17 5 2 -5 -10 -6 -15 -17 -11 -26 4
-11 8 -12 19 -3 12 10 13 9 8 -5 -4 -11 0 -22 12 -31 20 -14 38 -10 29 6 -4 5
-1 9 5 9 7 0 10 -6 7 -14 -3 -8 2 -20 10 -28 14 -11 16 -11 11 4 -9 22 1 30
18 13 18 -18 18 -31 -1 -39 -12 -4 -8 -13 20 -43 19 -20 37 -34 41 -30 4 3 13
0 20 -8 17 -17 18 -29 2 -19 -16 10 12 -28 29 -39 15 -9 5 -39 -11 -31 -6 3
-3 -1 8 -10 18 -14 14 -42 -5 -31 -5 4 -9 2 -9 -4 0 -5 7 -14 16 -19 14 -8 14
-13 4 -32 -9 -17 -9 -21 0 -15 9 5 10 1 5 -14 -4 -13 -1 -27 9 -36 13 -14 15
-13 15 2 -1 10 2 31 6 47 4 19 1 32 -7 38 -9 5 -10 10 -2 15 19 14 25 43 9 43
-8 0 -15 9 -15 20 0 13 5 18 15 14 11 -5 13 -2 9 10 -3 9 -10 14 -14 11 -4 -3
-10 2 -14 10 -3 8 -1 15 4 15 5 0 4 13 -2 31 -6 18 -16 28 -23 25 -8 -3 -19 3
-27 12 -9 11 -10 14 0 8 7 -4 12 -2 12 6 0 8 3 9 8 3 13 -18 31 -15 42 8 11
21 10 21 -4 3 -12 -15 -16 -16 -16 -5 0 8 5 20 11 26 8 8 8 13 0 17 -6 4 -11
12 -11 17 0 6 5 7 10 4 14 -9 13 -6 -15 49 -14 27 -25 42 -25 33 0 -9 -4 -17
-10 -17 -5 0 -10 8 -10 18 0 10 -6 24 -12 31 -11 11 -10 13 4 8 12 -4 15 -2
11 9 -6 16 1 18 26 5 23 -13 36 -2 36 29 0 20 4 25 23 23 20 -3 21 0 12 17
-11 21 -30 27 -30 10 0 -5 -5 -10 -11 -10 -8 0 -8 4 0 14 16 18 4 46 -17 39
-13 -4 -14 -3 -3 5 7 5 10 15 7 21 -11 17 5 13 27 -6 18 -17 19 -17 15 7 -2
14 -9 24 -15 23 -7 -1 -9 6 -5 19 3 14 1 19 -6 14 -7 -4 -12 -1 -12 9 0 19
-58 75 -77 75 -15 0 -16 9 -3 30 5 8 10 11 10 5 1 -5 5 0 10 13 13 30 10 38
-12 34 -10 -2 -18 2 -18 7 0 6 3 10 8 8 7 -2 12 6 12 24 0 5 -4 8 -9 5 -5 -4
-17 -3 -26 0 -13 5 -14 9 -3 15 10 7 7 14 -12 30 l-25 20 23 -6 c13 -4 34 -8
45 -10 38 -5 81 -17 130 -38 l48 -20 -8 -56 c-4 -31 -7 -263 -5 -516 3 -458 1
-504 -34 -720 -8 -49 -18 -135 -24 -190 -18 -182 -34 -302 -46 -334 -3 -8 -5
-62 -5 -119 l0 -104 -81 7 c-45 4 -94 11 -110 16 -31 9 -60 33 -51 43 4 3 -4
6 -16 6 -12 0 -19 4 -16 10 4 6 11 8 16 5 5 -4 9 1 9 10 0 12 -6 15 -22 10
-19 -6 -21 -5 -10 6 17 18 15 32 -4 25 -12 -5 -14 -1 -9 15 5 16 4 19 -5 14
-9 -6 -10 -1 -5 16 7 20 6 22 -6 12 -15 -12 -18 -5 -20 56 -1 14 -8 25 -20 28
-10 3 -19 12 -19 19 0 8 -3 13 -8 13 -19 -3 -33 2 -27 10 3 5 -8 9 -23 9 -16
-1 -34 2 -39 5 -6 4 -13 -5 -16 -20 -4 -19 1 -32 15 -44 10 -10 18 -20 16 -23
-2 -3 6 -16 17 -28 11 -13 18 -27 17 -32 -2 -5 3 -13 10 -18 10 -6 9 -12 -6
-23 -14 -10 -15 -15 -6 -15 10 0 11 -3 3 -11 -8 -8 -18 -6 -35 5 -14 9 -28 13
-31 9 -4 -3 -7 -1 -7 5 0 7 -5 12 -12 12 -6 0 -19 7 -27 14 -22 20 -43 6 -43
-27 0 -27 22 -57 43 -57 7 0 3 -10 -9 -23 l-22 -23 47 -21 c53 -24 92 -31 109
-20 7 4 36 2 66 -3 65 -12 131 -17 251 -19 68 -1 89 -4 92 -16 3 -8 7 -22 10
-30 4 -13 8 -13 25 -3 17 11 22 10 31 -2 9 -13 10 -13 6 2 -3 9 0 21 6 26 13
10 122 8 312 -3 66 -5 138 -9 160 -10 22 -2 87 -8 145 -14 58 -7 117 -14 132
-15 15 -2 39 -11 53 -20 27 -18 33 -29 11 -20 -8 3 -23 -4 -34 -16 -11 -12
-25 -19 -31 -15 -6 3 -11 1 -11 -5 0 -10 -212 -8 -405 5 -38 3 -115 7 -170 10
-125 7 -130 8 -148 23 -10 9 -17 9 -21 3 -9 -14 -57 8 -50 23 3 6 -3 1 -14
-11 -18 -20 -29 -23 -99 -22 -43 1 -82 5 -88 9 -11 9 -85 20 -127 20 -14 0
-55 7 -90 16 -34 9 -72 17 -83 19 -25 3 -75 22 -95 35 -8 6 -23 13 -32 16 -10
4 -18 10 -18 15 0 5 -4 9 -9 9 -4 0 -6 -11 -3 -25 5 -26 45 -49 157 -90 28
-10 56 -23 62 -29 9 -8 13 -65 15 -193 2 -99 6 -179 9 -177 4 2 9 -31 13 -74
6 -79 20 -192 41 -345 6 -48 8 -87 3 -87 -4 0 -8 -7 -8 -16 0 -13 -6 -15 -27
-10 -17 4 -23 3 -15 -2 16 -11 5 -42 -17 -43 -10 0 -11 -2 -3 -6 6 -2 12 -14
12 -25 0 -18 -1 -18 -17 -3 -15 15 -23 74 -24 172 0 35 -15 45 -22 15 -2 -9
-2 1 1 23 2 22 10 47 17 55 8 8 13 19 12 23 -1 5 9 15 23 23 l25 15 -25 -6
-25 -6 25 20 c14 11 19 21 13 21 -19 0 -16 18 5 23 13 4 11 5 -5 6 -13 0 -23
7 -23 14 -1 13 -60 -52 -60 -66 0 -5 7 -7 15 -3 22 8 18 -2 -6 -15 -15 -8 -19
-8 -15 0 8 12 -6 15 -17 4 -4 -3 2 -12 13 -20 21 -15 17 -45 -6 -36 -17 6 -19
-8 -3 -24 8 -8 8 -17 -3 -31 -14 -21 -13 -112 2 -112 4 0 6 17 3 39 -3 21 -1
46 3 54 6 10 9 -2 8 -36 0 -60 -11 -100 -25 -92 -5 3 -6 0 -3 -8 6 -16 -23
-50 -36 -42 -14 9 -20 -25 -9 -47 7 -12 7 -23 2 -27 -12 -8 -14 -131 -2 -131
6 0 8 -4 4 -9 -3 -6 3 -15 14 -21 17 -8 22 -6 32 11 9 17 8 20 -2 14 -7 -5 -4
4 7 18 10 15 27 29 37 32 9 4 17 10 17 15 0 5 14 7 32 3 24 -5 34 -2 46 13 12
15 13 15 9 2 -6 -18 17 -43 32 -34 5 3 11 1 13 -6 3 -9 6 -9 12 0 4 7 3 12 -2
12 -5 0 -7 26 -5 58 3 45 1 52 -7 34 -11 -27 -30 -21 -30 9 0 13 -4 18 -13 13
-7 -4 -9 -3 -4 2 5 5 14 9 20 9 6 0 14 11 18 25 7 27 9 24 28 -48 7 -24 9 -52
6 -62 -3 -11 -2 -27 3 -37 6 -10 6 -26 2 -39 -7 -18 -6 -21 10 -17 21 6 24
-12 40 -247 5 -85 19 -219 30 -296 12 -84 20 -192 19 -265 0 -136 -23 -367
-30 -309 -2 19 -5 -52 -7 -159 -1 -107 0 -203 4 -213 5 -17 30 -18 485 -18
l480 0 -7 22 c-10 34 -8 346 4 403 5 28 19 84 30 125 11 42 25 136 32 210 6
74 15 153 20 175 11 49 45 379 60 574 6 80 17 156 25 170 7 14 16 66 20 116 4
49 11 95 16 101 5 6 7 18 3 27 -3 8 0 18 7 23 9 5 10 2 6 -9 -8 -21 3 -22 29
-1 15 13 16 15 2 10 -12 -3 -15 -1 -11 9 3 8 -2 18 -10 21 -11 4 -14 12 -8 27
8 22 5 86 -4 95 -3 3 -8 -9 -11 -27 -14 -67 -13 -20 1 90 8 63 21 168 30 234
8 65 15 125 15 131 0 11 54 30 72 26 4 -1 14 24 23 56 37 129 76 252 81 252 2
0 2 -11 -2 -25 -4 -15 -2 -25 5 -25 6 0 11 12 11 27 l0 27 20 -22 c11 -12 20
-27 20 -34 0 -9 3 -9 11 2 8 11 12 12 16 3 2 -7 13 -13 23 -13 9 0 23 -7 30
-15 7 -9 19 -14 26 -11 9 3 11 0 7 -11 -5 -13 -2 -15 12 -9 11 4 16 4 12 0 -3
-4 3 -16 16 -27 l22 -19 -22 6 c-17 6 -23 3 -23 -8 0 -10 -9 -16 -22 -16 -19
0 -20 -2 -8 -10 8 -5 27 -10 42 -10 33 0 58 -9 58 -21 0 -5 -7 -9 -15 -9 -16
0 -20 -15 -7 -24 5 -3 21 -7 36 -10 16 -3 30 -7 33 -9 7 -8 -75 -17 -91 -11
-12 5 -15 2 -10 -9 6 -18 55 -37 92 -37 17 0 23 -4 19 -15 -4 -8 -2 -17 4 -20
5 -4 13 4 18 17 9 21 10 21 12 3 1 -11 3 -24 3 -30 1 -5 5 -16 10 -24 5 -8 3
-16 -5 -22 -13 -8 -6 -13 14 -10 4 0 7 -6 7 -14 0 -8 -3 -14 -7 -13 -5 2 -8
-1 -8 -7 0 -5 6 -9 13 -9 6 1 12 -4 12 -11 0 -7 3 -21 7 -31 5 -13 3 -15 -8
-10 -9 5 -8 3 2 -6 20 -17 152 -519 142 -543 -4 -12 -3 -16 4 -12 12 8 25 -45
17 -67 -7 -17 -69 -67 -87 -70 -23 -3 -85 -47 -91 -64 -6 -16 -5 -16 8 1 7 9
20 17 29 17 17 0 41 -35 33 -48 -3 -4 -1 -14 4 -22 8 -12 10 -12 15 2 4 9 23
29 43 43 l37 27 -28 -26 c-33 -31 -16 -34 31 -6 20 12 32 28 33 42 1 26 7 5
38 -137 17 -79 18 -96 6 -140 -12 -48 -13 -49 -19 -20 -19 85 -24 89 -21 15 2
-69 9 -94 58 -225 l15 -40 7 50 c9 66 13 77 14 38 1 -18 -24 -110 -55 -205
-72 -226 -69 -214 -99 -358 -14 -69 -39 -165 -54 -215 -16 -49 -34 -116 -41
-147 -6 -32 -16 -60 -21 -63 -5 -4 -9 -11 -9 -16 0 -6 4 -8 9 -5 5 4 6 -10 1
-32 -4 -20 -10 -54 -13 -75 l-6 -37 589 0 589 0 15 29 c9 16 12 31 9 35 -4 3
-2 6 4 6 10 0 23 39 29 93 2 15 -1 27 -6 27 -6 0 -10 9 -10 21 0 12 -4 17 -11
13 -7 -4 -9 0 -5 13 5 14 -1 23 -19 33 -19 10 -22 16 -14 26 6 7 8 18 4 24 -3
5 -1 10 6 10 6 0 9 8 6 20 -3 13 0 20 10 20 8 0 12 4 9 8 -2 4 4 27 14 50 11
23 19 45 19 47 1 3 8 20 17 38 10 17 18 52 20 77 1 25 3 45 4 45 2 0 4 25 5
55 1 30 6 64 10 74 6 14 5 17 -4 11 -7 -4 -5 4 4 19 10 15 24 25 31 22 7 -3
16 -1 19 4 4 6 0 10 -8 10 -16 0 -13 35 3 45 5 3 6 -5 2 -17 -3 -13 -1 -19 5
-15 13 8 45 98 38 105 -2 3 -6 -1 -9 -9 -13 -43 -17 -51 -22 -47 -2 3 0 18 6
34 32 82 72 294 73 379 1 133 -21 807 -27 830 -3 11 -12 106 -21 210 -8 105
-18 206 -21 226 -3 23 -1 41 8 50 23 24 39 69 25 69 -6 1 11 10 38 22 28 12
56 29 62 38 14 16 11 155 -7 360 -5 58 -16 186 -25 285 -18 215 -34 380 -40
416 -3 21 2 27 31 38 37 13 75 57 98 112 8 18 37 65 66 103 l51 70 -7 125 c-3
69 -9 165 -13 213 -4 48 -3 97 2 109 5 14 3 25 -4 29 -7 5 -12 54 -13 142 -1
112 2 138 17 161 9 14 17 39 17 55 0 38 27 209 39 247 l9 30 1 -30 c1 -21 4
-26 10 -16 5 7 7 39 4 70 -3 35 2 81 12 121 9 36 19 75 22 88 3 12 9 22 14 22
5 0 9 14 9 30 0 47 78 339 100 375 11 18 20 50 20 73 0 25 11 61 31 98 19 36
28 66 25 80 -7 25 11 84 25 84 5 0 9 13 9 30 0 16 13 89 29 162 17 73 35 171
41 218 6 47 16 88 22 91 7 4 6 13 -1 28 -8 13 -10 51 -6 103 9 140 -19 163
-195 162 -82 0 -173 -6 -290 -19 -68 -8 -161 -37 -259 -82 -58 -26 -77 -31
-88 -21 -19 15 -8 63 25 111 89 126 94 140 78 187 -14 41 -14 42 16 76 67 76
221 109 482 102 155 -4 170 -6 185 -25 20 -24 71 -37 71 -17 0 8 5 14 10 14
25 0 -12 38 -42 44 -63 11 -384 9 -508 -3 -142 -14 -223 -7 -228 22 -3 15 15
45 60 97 7 8 13 21 14 28 1 6 2 18 3 26 0 7 17 21 37 31 35 16 36 18 30 58 -8
49 -14 53 -67 55 -99 4 -149 82 -89 142 22 22 25 42 10 70 -8 15 1 32 47 91
51 65 93 133 93 149 0 11 -47 5 -63 -8 -22 -18 -88 -52 -102 -52 -19 0 -52 42
-65 83 -11 36 -7 88 26 287 3 19 8 55 10 80 2 25 6 62 8 82 2 21 0 41 -5 44
-5 3 -7 10 -3 15 3 5 1 15 -5 22 -5 7 -10 36 -9 64 0 29 -3 56 -6 61 -3 5 -6
74 -5 153 0 148 -1 181 -6 259 -2 25 -4 72 -5 105 -2 66 -3 65 -19 -15 -84
-412 -106 -543 -121 -715 -6 -66 -15 -135 -20 -155 -35 -129 -68 -304 -60
-319 24 -42 60 -214 60 -283 0 -64 4 -80 29 -119 42 -67 50 -101 56 -239 6
-151 10 -200 18 -220 24 -64 27 -100 23 -239 -2 -83 0 -166 5 -183 11 -40 24
-400 15 -424 -6 -16 -8 -15 -23 6 -19 28 -35 181 -20 191 6 4 6 15 2 25 -6 17
-9 15 -16 -9 -4 -16 -5 -35 -2 -43 3 -8 0 -14 -6 -14 -6 0 -11 5 -11 10 0 6
-4 10 -8 10 -17 0 -28 -45 -22 -86 5 -34 3 -41 -8 -36 -10 3 -13 0 -10 -9 3
-8 1 -24 -3 -36 -5 -14 -4 -23 4 -27 9 -3 8 -7 -2 -14 -10 -7 -12 -21 -8 -45
3 -23 0 -42 -9 -56 -13 -19 -13 -21 0 -21 9 0 16 -7 16 -15 0 -8 -5 -15 -11
-15 -8 0 -8 -4 -1 -12 6 -7 9 -33 9 -56 -1 -25 3 -48 11 -54 6 -6 12 -27 12
-48 0 -20 3 -40 8 -44 4 -4 7 -40 8 -79 2 -149 -31 -285 -89 -374 -17 -26 -35
-49 -39 -51 -9 -4 -78 -100 -78 -109 0 -3 10 2 22 13 l23 19 -19 -22 c-10 -13
-23 -20 -27 -17 -10 6 -41 -21 -33 -29 6 -6 -101 -98 -112 -96 -5 1 -16 1 -24
0 -13 -1 -13 -3 0 -12 13 -9 12 -10 -3 -5 -12 4 -38 -11 -82 -49 -83 -70 -244
-147 -444 -211 -9 -3 -11 -12 -6 -27 12 -39 26 -101 35 -147 5 -25 15 -70 22
-100 13 -51 21 -151 23 -259 0 -38 -3 -44 -22 -47 -16 -3 -23 1 -23 11 0 27
-42 -20 -44 -48 0 -14 -5 -23 -10 -19 -5 3 -6 -3 -2 -13 5 -14 4 -16 -8 -6 -7
6 -21 8 -30 5 -14 -5 -14 -9 -4 -22 11 -13 10 -15 -4 -9 -10 3 -20 2 -23 -3
-4 -6 -1 -10 4 -10 6 0 11 -5 11 -11 0 -6 -6 -9 -12 -6 -7 2 -13 13 -13 24 -1
11 -13 31 -28 44 -26 24 -27 27 -33 174 -4 87 -16 199 -28 265 -25 131 -24
158 10 166 13 3 24 10 24 16 0 5 -6 5 -16 0 -20 -11 -59 -2 -269 65 -287 91
-426 167 -929 510 -59 41 -159 101 -222 133 -125 64 -159 88 -222 164 -77 91
-115 127 -204 193 -86 64 -119 101 -78 88 19 -6 30 10 11 17 -14 5 -17 40 -4
45 6 2 14 -5 18 -17 5 -17 10 -19 21 -9 8 6 14 8 14 3 0 -5 7 -1 14 8 12 16
18 13 69 -33 32 -28 60 -61 63 -74 4 -15 11 -22 20 -18 8 3 14 0 14 -6 0 -18
133 -147 138 -133 2 7 -5 21 -17 31 -12 10 -21 25 -21 33 0 13 -29 56 -70 105
-5 7 -10 15 -10 18 0 3 -7 13 -16 23 -8 9 -47 64 -84 122 -38 58 -86 124 -107
147 -31 35 -38 50 -38 85 0 24 -4 46 -10 50 -5 4 3 6 19 5 22 -1 55 -27 134
-105 57 -57 107 -100 110 -97 4 3 2 9 -3 13 -6 4 -11 16 -13 27 -2 11 -21 46
-43 78 -21 32 -39 62 -39 66 0 4 -11 18 -25 31 -14 13 -25 29 -25 37 0 7 -9
21 -19 30 -11 9 -17 21 -14 26 3 6 -2 16 -12 24 -11 7 -13 13 -6 13 7 0 9 5 6
10 -4 6 -12 7 -18 3 -9 -5 -9 -3 0 8 6 8 11 44 11 82 0 38 5 73 12 82 6 8 9
18 6 23 -3 5 1 19 8 33 7 13 11 30 8 37 -2 6 1 12 7 12 6 0 8 6 5 13 -8 21 22
40 55 35 17 -2 28 -1 25 4 -3 4 0 8 6 8 7 0 10 7 7 15 -7 18 9 30 17 13 3 -7
3 -1 0 15 -4 18 -2 27 6 27 8 0 10 8 5 23 -10 31 -6 89 7 104 8 10 6 13 -8 13
-17 1 -17 2 -4 13 8 7 20 22 27 34 10 17 9 22 -1 26 -14 6 -27 87 -15 87 16 0
15 54 -2 88 -11 20 -19 49 -19 64 0 15 -4 29 -9 32 -4 3 -11 19 -14 35 -7 32
-44 117 -61 140 -6 7 -12 25 -14 39 -2 14 -11 31 -20 38 -13 9 -17 29 -18 78
0 36 4 66 8 66 5 0 6 5 3 10 -4 6 5 10 21 10 15 0 33 8 41 18 10 12 16 14 19
5 3 -7 17 -13 30 -13 31 0 32 27 2 33 -22 4 -22 4 -2 6 22 1 43 31 23 31 -6 0
-9 9 -6 20 3 13 0 20 -10 20 -9 0 -13 6 -9 15 3 9 -3 24 -14 35 -10 10 -15 20
-11 22 5 2 -2 37 -16 78 -15 48 -20 76 -14 78 6 2 8 9 4 15 -4 7 -8 32 -9 56
-2 31 0 40 7 30 8 -12 10 -12 18 0 7 11 4 20 -10 32 -10 9 -19 22 -19 28 0 7
-5 9 -12 5 -7 -5 -8 -3 -4 5 6 9 12 8 26 -4 16 -15 18 -14 23 5 3 12 0 20 -7
20 -9 0 -13 15 -12 46 1 35 -3 48 -18 56 -13 7 -15 13 -7 17 13 8 -2 61 -17
61 -4 0 -7 14 -6 30 1 23 -2 30 -15 30 -25 0 -33 11 -20 27 9 10 8 13 -1 13
-9 0 -11 9 -6 30 4 20 2 30 -7 30 -8 0 -8 3 2 9 9 6 15 30 16 68 1 47 4 59 19
61 17 4 16 5 -1 19 -16 13 -16 14 0 9 20 -6 21 -2 6 26 -8 15 -8 22 1 28 10 6
9 13 -4 31 -9 13 -16 41 -16 62 0 33 -3 38 -19 32 -24 -7 -53 4 -44 19 4 6 -4
4 -17 -5 -30 -18 -57 -14 -64 9 -3 9 -1 44 5 77 6 33 12 82 14 109 1 26 8 52
15 56 9 6 9 9 0 15 -6 4 -16 19 -22 33 -9 22 -12 23 -15 10 -4 -14 -9 -16 -23
-8 -14 7 -20 6 -24 -7 -12 -31 -27 3 -31 73 -5 82 -16 128 -39 169 l-17 30 6
-58z m3813 -2812 c5 -4 -40 -160 -49 -165 -4 -3 -11 -21 -14 -40 -3 -19 -13
-38 -21 -43 -8 -4 -14 -20 -14 -35 0 -16 -5 -33 -11 -39 -6 -6 -12 -17 -13
-24 -5 -28 -34 -84 -55 -108 -11 -13 -21 -21 -21 -18 0 11 -37 -29 -50 -52 -6
-11 -23 -27 -39 -35 -28 -15 -28 -15 -40 25 -19 62 -14 224 8 307 11 38 16 73
20 139 2 45 181 108 266 95 17 -3 31 -6 33 -7z m-3908 -937 c0 -4 23 -32 50
-60 28 -29 53 -64 56 -78 3 -14 14 -43 25 -64 10 -22 16 -43 14 -47 -3 -4 2
-20 10 -35 8 -16 15 -34 15 -40 0 -16 50 -104 59 -104 3 0 15 -16 25 -35 11
-19 22 -35 27 -35 11 0 46 -64 54 -99 6 -26 4 -31 -13 -31 -10 0 -25 12 -33
27 -8 15 -35 63 -61 108 -27 44 -48 83 -48 87 0 10 -100 160 -115 173 -29 26
-98 118 -129 173 -23 41 -36 80 -41 121 l-7 61 56 -57 c31 -31 56 -61 56 -65z
m3487 -513 c2 -43 0 -64 -7 -60 -6 4 -10 -5 -10 -20 0 -15 -4 -24 -10 -20 -5
3 -10 -1 -10 -10 0 -9 4 -14 9 -10 17 10 23 -15 11 -50 -6 -19 -16 -35 -21
-35 -5 0 -9 -17 -9 -37 0 -49 -10 -84 -21 -77 -5 3 -9 4 -9 2 0 -2 -4 -18 -10
-36 -8 -29 -7 -32 6 -21 8 6 17 10 19 7 5 -5 -13 -81 -39 -173 -8 -27 -20 -88
-27 -135 -6 -47 -24 -123 -40 -169 -16 -46 -29 -99 -29 -116 0 -18 -6 -38 -14
-44 -14 -12 -20 -32 -35 -123 -7 -47 -34 -80 -74 -94 -29 -9 -30 1 -8 69 18
53 39 208 41 293 0 11 -9 30 -21 42 l-20 22 -33 -25 c-124 -95 -19 98 150 275
39 41 61 106 104 310 38 181 64 265 81 265 9 0 13 9 11 25 -2 14 -1 22 3 18 5
-4 10 -37 12 -73z m-2555 13 c-18 -18 -14 -32 5 -17 9 8 24 13 34 11 39 -7
239 -123 247 -144 2 -4 10 -8 17 -8 7 0 15 -6 18 -13 3 -8 21 -22 41 -31 20
-9 36 -21 36 -26 0 -5 9 -12 20 -15 11 -3 20 -14 20 -23 0 -15 2 -15 10 -2 5
8 10 10 10 4 0 -13 59 -57 77 -57 8 0 12 -6 9 -14 -3 -7 -2 -12 2 -12 17 2 51
-14 46 -22 -3 -5 2 -6 11 -3 23 9 54 -23 48 -49 -4 -20 -3 -20 7 -4 15 23 37
22 45 -4 5 -15 10 -17 20 -9 9 8 17 7 29 -5 9 -9 20 -13 26 -10 12 8 13 -5 1
-23 -7 -11 -12 -10 -28 7 -18 19 -19 19 -19 1 0 -10 4 -16 9 -13 5 3 7 -3 5
-12 -3 -19 -38 -31 -38 -14 0 6 -5 7 -10 4 -14 -9 -38 17 -32 35 4 11 -1 10
-17 -4 -12 -11 -21 -14 -21 -7 0 7 -9 9 -24 5 -18 -4 -25 -1 -29 17 -6 23 -6
23 -27 4 -20 -19 -21 -19 -14 1 5 16 4 16 -5 4 -8 -11 -13 -12 -19 -3 -5 8
-11 3 -19 -13 -9 -20 -9 -23 1 -15 6 6 22 8 34 4 17 -4 20 -11 16 -28 -3 -14
1 -29 11 -39 23 -23 33 -11 11 13 -10 11 -13 21 -7 25 5 4 12 -2 16 -13 3 -11
12 -22 20 -24 8 -4 11 -14 8 -28 -4 -15 -2 -20 5 -15 6 3 14 2 17 -4 5 -8 12
-7 23 2 14 10 15 10 5 -2 -19 -21 -16 -28 10 -23 20 4 24 1 23 -19 -1 -17 4
-22 17 -20 10 2 27 -6 36 -17 10 -12 21 -21 25 -21 3 0 19 -13 34 -30 28 -29
50 -41 37 -20 -11 17 10 11 33 -11 12 -11 26 -17 31 -14 5 3 12 -4 16 -15 7
-22 25 -27 26 -7 0 10 2 10 6 0 2 -7 14 -13 24 -13 11 0 17 -4 14 -10 -3 -5 3
-10 14 -10 13 0 21 -7 21 -17 1 -17 1 -17 14 0 13 17 14 17 18 -1 5 -17 16
-21 60 -23 9 0 20 -9 23 -20 4 -11 11 -16 17 -13 7 5 8 2 3 -5 -4 -7 1 -20 13
-31 19 -18 42 -112 42 -173 0 -37 -18 -79 -31 -72 -6 4 -8 14 -4 23 3 9 3 13
-1 9 -4 -4 -14 -1 -22 6 -13 10 -14 8 -7 -13 7 -24 6 -24 -7 -6 -8 10 -20 16
-26 12 -7 -4 -12 -3 -12 2 0 5 9 12 20 15 41 11 12 35 -32 28 -5 0 -8 4 -8 10
0 7 10 9 25 7 28 -6 27 -6 19 16 -3 8 -11 13 -19 10 -8 -3 -12 3 -10 18 2 13
-3 32 -10 41 -11 16 -13 16 -19 2 -3 -9 -2 -14 3 -11 17 11 20 -37 4 -68 -11
-21 -12 -31 -4 -34 13 -4 15 -22 2 -22 -15 0 -21 29 -10 57 7 18 6 30 -1 37
-8 8 -9 6 -5 -6 4 -10 3 -18 -3 -18 -23 0 -23 58 1 88 6 8 6 12 -2 12 -6 0
-13 -11 -17 -25 -5 -21 -9 -23 -20 -14 -8 7 -17 9 -21 6 -3 -4 -12 -2 -18 3
-9 8 -18 2 -34 -22 -26 -42 -28 -24 -1 20 25 41 25 51 1 45 -16 -4 -19 -1 -15
19 l5 23 -14 -24 c-12 -20 -15 -21 -20 -7 -11 28 -25 18 -24 -16 2 -24 7 -33
19 -32 10 1 14 -4 11 -13 -8 -21 -27 -10 -38 23 -12 39 -12 39 -30 20 -9 -9
-21 -14 -26 -11 -15 10 -10 -5 6 -22 19 -18 14 -39 -8 -37 -12 1 -14 -3 -7
-22 9 -21 8 -22 -20 -13 -19 7 -35 7 -48 0 -17 -9 -19 -14 -9 -35 10 -22 14
-23 28 -10 8 8 22 14 30 14 11 -1 10 -4 -3 -14 -23 -17 -23 -29 0 -18 9 5 24
7 32 5 12 -4 12 -3 2 5 -12 8 -12 13 0 31 7 12 19 19 27 16 11 -4 11 -2 2 9
-14 17 -3 26 25 22 10 -2 25 2 33 8 12 9 12 8 1 -11 -8 -12 -17 -20 -21 -17
-5 2 -13 -4 -18 -15 -16 -29 -13 -39 5 -16 15 20 16 20 40 -10 18 -22 26 -27
32 -17 5 7 16 10 25 6 12 -4 17 -1 17 10 0 9 5 16 10 16 13 0 13 -3 -2 -35 -6
-14 -19 -25 -30 -25 -10 0 -18 -5 -18 -11 0 -5 5 -7 11 -3 8 5 10 -1 7 -20 -3
-14 -1 -29 3 -32 5 -3 9 3 9 13 0 13 2 15 9 5 11 -17 44 -22 53 -8 5 7 12 5
21 -8 10 -13 16 -16 21 -7 4 6 12 9 17 5 6 -3 3 -11 -7 -18 -15 -11 -10 -13
29 -12 26 1 46 -3 46 -8 0 -5 6 -13 15 -18 30 -17 13 -103 -28 -137 -12 -10
-17 -9 -26 6 -9 15 -10 14 -4 -7 6 -24 6 -24 -12 -9 -11 9 -27 15 -36 14 -9
-2 -22 3 -29 11 -15 19 -30 18 -23 -1 4 -8 1 -15 -5 -15 -6 0 -11 4 -11 9 0 8
-66 26 -82 23 -5 -1 -8 5 -8 13 0 15 -9 18 -46 16 -12 -1 -28 5 -37 13 -17 18
-32 21 -22 6 3 -5 2 -10 -4 -10 -5 0 -13 5 -16 10 -4 7 -14 3 -25 -10 -10 -12
-21 -17 -24 -11 -4 5 -2 12 4 16 5 3 10 16 10 28 0 16 -3 19 -9 8 -5 -8 -14
-10 -22 -5 -8 4 -26 7 -41 5 -20 -2 -28 2 -28 13 0 9 -5 16 -10 16 -7 0 -7 -6
0 -20 6 -11 20 -20 30 -20 11 0 20 -4 20 -9 0 -6 -9 -8 -20 -6 -25 5 -36 -11
-14 -19 9 -4 15 -9 12 -12 -3 -2 -17 0 -31 5 -16 6 -29 7 -32 1 -3 -5 -12 -7
-20 -4 -11 4 -13 14 -8 32 6 26 6 26 -12 9 -22 -22 -33 -14 -14 10 13 17 13
17 -5 3 -15 -11 -20 -12 -23 -3 -4 10 -9 9 -20 -3 -14 -13 -17 -13 -30 6 -8
11 -13 27 -10 34 3 7 2 18 -3 25 -5 9 -9 5 -14 -13 -7 -29 -21 -34 -30 -11 -3
8 -12 12 -20 9 -8 -3 -13 0 -13 10 1 8 -2 15 -8 15 -5 0 -10 -6 -9 -12 1 -7
-5 -18 -13 -26 -12 -10 -13 -9 -8 12 4 14 2 28 -3 31 -6 3 -8 15 -5 26 3 11 0
20 -6 20 -6 0 -11 -4 -11 -10 0 -5 -5 -10 -11 -10 -6 0 -8 10 -5 23 3 12 3 17
0 11 -3 -7 -13 -10 -23 -7 -10 2 -25 -3 -34 -11 -25 -25 -30 -18 -8 10 30 38
25 55 -5 19 -20 -23 -24 -25 -20 -9 5 16 -1 23 -35 38 -22 10 -50 16 -61 13
-23 -7 -53 17 -42 34 4 7 0 9 -14 5 -11 -4 -23 -2 -27 4 -3 5 -16 10 -28 9
-21 0 -21 -1 2 -10 23 -9 23 -10 6 -23 -17 -12 -21 -10 -36 18 -9 17 -15 34
-12 38 2 4 -3 5 -13 1 -13 -5 -15 -2 -9 17 4 14 3 20 -3 16 -5 -3 -15 8 -22
24 -7 16 -18 35 -26 41 -8 6 -14 22 -14 36 0 13 -7 26 -15 29 -11 5 -13 10 -5
19 5 6 7 15 3 18 -3 4 -1 7 6 7 8 0 10 7 6 19 -3 11 1 35 9 54 11 28 19 35 40
33 14 0 26 -7 26 -13 0 -7 10 -13 23 -13 13 0 29 6 36 13 10 10 12 8 9 -8 -2
-13 2 -19 11 -17 7 1 19 -2 25 -8 7 -5 16 -7 19 -3 4 3 16 -5 28 -18 11 -13
27 -23 34 -21 7 1 15 -4 19 -13 3 -8 16 -15 28 -14 22 0 22 1 3 9 -19 8 -19 9
1 9 12 1 24 -6 28 -14 3 -8 12 -12 19 -9 10 3 17 -4 21 -20 4 -17 11 -23 22
-19 8 3 21 -3 29 -13 13 -17 16 -17 25 -4 8 13 10 13 10 -2 0 -10 -6 -18 -12
-18 -9 0 -9 -3 1 -9 17 -11 43 -3 35 11 -4 6 5 3 18 -6 14 -9 33 -14 42 -10
10 4 16 1 16 -7 0 -11 3 -11 10 1 9 13 10 13 11 0 1 -8 1 -21 0 -27 -1 -7 3
-13 9 -13 5 0 10 5 10 10 0 7 6 7 19 0 34 -18 77 -12 95 13 15 20 15 20 0 -12
-8 -18 -24 -36 -35 -38 -25 -7 -25 -22 0 -20 11 0 18 4 15 8 -4 8 46 22 53 15
3 -2 0 -14 -7 -25 -7 -14 -7 -21 -1 -21 6 0 13 11 17 25 6 25 6 25 24 5 21
-24 32 -26 24 -5 -7 18 -4 18 31 5 22 -9 26 -8 22 4 -3 8 1 17 9 20 8 3 14 0
14 -6 0 -9 3 -9 12 0 10 10 10 15 -1 21 -7 5 -11 13 -7 19 3 6 2 12 -3 14 -5
1 -3 12 6 23 l15 20 -6 -20 c-7 -25 8 -53 19 -35 6 9 10 9 16 -1 7 -11 9 -10
9 4 0 9 4 17 10 17 5 0 7 7 4 15 -5 11 -2 13 12 8 12 -4 15 -3 10 5 -4 7 -14
12 -21 12 -10 0 -12 6 -8 18 6 15 5 16 -12 2 -17 -14 -18 -13 -13 2 4 10 1 19
-8 22 -8 3 -14 11 -14 18 0 14 -65 60 -89 64 -8 2 -18 10 -23 18 -5 8 -15 13
-23 10 -8 -4 -15 -1 -15 5 0 6 -9 11 -20 11 -14 0 -18 5 -13 16 5 14 2 16 -20
10 -21 -5 -27 -3 -27 10 0 11 -6 15 -20 11 -11 -3 -18 -1 -15 4 3 4 -5 11 -19
15 -14 3 -30 12 -36 19 -6 8 -18 11 -26 8 -8 -3 -14 -1 -14 5 0 10 -46 42
-107 75 -19 10 -31 22 -28 27 3 6 0 10 -8 10 -8 0 -18 7 -21 16 -3 8 -10 12
-16 9 -5 -3 -10 -1 -10 5 0 6 -4 8 -10 5 -5 -3 -10 1 -10 9 0 9 -6 13 -15 10
-9 -4 -32 12 -61 43 -25 26 -49 49 -53 49 -29 6 -50 18 -46 24 5 9 -33 26 -48
22 -12 -3 -77 68 -77 85 0 10 -6 13 -16 9 -24 -9 -113 58 -115 87 0 9 -2 9 -6
-1 -9 -22 -21 -3 -17 28 3 22 0 29 -8 24 -7 -5 -9 -2 -5 9 4 11 1 15 -11 12
-12 -2 -17 4 -17 21 0 18 4 22 17 18 36 -11 58 -12 63 -3 4 5 15 9 26 9 11 0
17 -4 14 -10 -4 -7 3 -7 20 0 15 6 39 8 55 5 19 -3 41 2 62 14 39 23 46 25 30
9z m2052 -265 c4 -9 1 -21 -6 -26 -9 -6 -8 -7 4 -3 10 3 20 1 23 -3 2 -5 -4
-11 -15 -14 -31 -8 -24 -24 10 -24 18 0 37 -8 46 -19 12 -14 14 -15 11 -3 -3
9 3 23 14 32 16 14 19 14 19 2 0 -7 -4 -16 -8 -19 -5 -3 -8 -15 -7 -28 1 -13
-2 -31 -7 -40 -5 -10 -6 -18 -2 -18 4 0 13 8 20 18 12 16 13 15 14 -5 0 -19
-5 -23 -29 -23 -16 0 -31 5 -33 12 -3 7 -7 5 -11 -6 -4 -10 -3 -15 3 -11 6 3
10 3 10 -2 -1 -10 -29 -60 -30 -52 0 13 -80 -67 -80 -80 0 -10 -6 -9 -21 5
-21 19 -22 19 -15 -2 5 -16 -1 -24 -33 -41 -28 -15 -41 -18 -45 -10 -2 7 -5 5
-5 -4 -1 -9 -8 -22 -16 -29 -8 -7 -15 -25 -15 -40 0 -17 -5 -27 -15 -27 -11 0
-14 7 -10 21 6 21 6 21 -10 1 -9 -11 -14 -28 -11 -38 4 -15 0 -18 -15 -14 -10
3 -19 2 -19 -1 0 -4 -11 -20 -25 -36 -14 -16 -25 -25 -25 -20 0 5 -9 -6 -20
-23 -11 -18 -24 -33 -30 -33 -5 0 -10 -5 -10 -11 0 -6 -10 -19 -22 -28 -20
-16 -20 -21 -9 -49 11 -26 11 -34 -2 -52 l-15 -22 -7 22 c-4 12 -10 19 -13 15
-6 -6 -7 -11 -10 -74 -2 -39 -13 -35 -18 6 -1 15 -8 75 -14 133 -6 58 -16 132
-21 165 -18 110 -17 139 6 151 11 6 19 16 17 22 -1 7 5 12 14 12 13 0 14 3 5
14 -10 11 -10 20 -1 37 7 13 15 17 19 11 4 -6 24 5 51 29 24 21 48 39 52 39 7
0 158 97 183 118 6 4 17 11 25 15 8 4 38 21 65 36 58 34 80 37 89 14z m-1174
-228 c8 -7 62 -22 120 -35 140 -30 158 -37 158 -63 0 -29 11 -127 17 -153 3
-14 -1 -24 -11 -28 -8 -3 -12 -2 -9 4 3 6 1 11 -4 11 -33 4 -71 19 -71 29 0 5
-7 16 -16 25 -14 13 -14 18 -2 33 12 15 11 16 -4 3 -16 -12 -19 -10 -27 10 -5
13 -10 19 -10 13 -1 -6 -8 -11 -16 -11 -18 0 -18 2 -4 29 9 17 13 18 20 7 7
-11 9 -10 9 4 0 21 -14 22 -33 2 -13 -12 -16 -12 -20 -1 -3 8 -3 25 0 38 l6
23 -22 -24 c-11 -13 -21 -19 -21 -12 0 6 -11 16 -25 21 -14 5 -25 14 -25 20 0
5 -4 10 -10 10 -5 0 -10 -7 -10 -15 0 -8 -5 -15 -11 -15 -5 0 -7 5 -4 10 3 6
1 10 -4 10 -6 0 -11 6 -11 14 0 10 -7 12 -22 8 -16 -4 -19 -2 -12 9 6 10 0 8
-19 -4 -24 -16 -29 -14 -26 11 1 4 5 6 9 5 5 -2 12 7 15 18 6 18 12 20 43 14
21 -4 44 -12 52 -20z m341 -76 c4 -8 19 -79 33 -159 23 -130 25 -164 20 -325
-4 -181 -6 -208 -16 -235 -3 -8 -9 -28 -14 -45 -5 -16 -17 -31 -26 -33 -15 -3
-14 4 3 80 15 67 17 109 13 218 -8 217 -16 295 -40 410 -19 88 -18 109 3 106
9 -2 20 -9 24 -17z m93 -644 c-4 -8 -1 -15 5 -15 6 0 11 -11 11 -25 0 -18 4
-23 15 -19 10 4 15 0 15 -11 0 -14 3 -15 15 -5 12 10 15 10 15 -3 0 -11 5 -14
16 -10 9 3 20 0 26 -8 11 -15 9 -7 -8 36 -7 18 -6 18 9 6 9 -7 17 -20 17 -27
0 -8 5 -14 11 -14 6 0 8 10 5 23 -3 12 -3 16 0 9 3 -6 10 -9 16 -6 6 4 8 -1 3
-15 -4 -12 -2 -21 4 -21 6 0 10 5 9 11 -2 6 3 14 10 16 7 3 13 -5 14 -19 5
-81 -15 -113 -64 -104 -16 3 -28 2 -28 -3 0 -4 -6 -8 -14 -8 -8 0 -12 6 -9 14
6 15 -6 17 -27 3 -11 -7 -11 -10 -2 -10 7 0 10 -5 7 -10 -7 -11 -45 5 -56 23
-4 6 -13 5 -25 -1 -17 -9 -19 -6 -19 36 0 26 3 49 6 52 3 3 9 24 13 48 5 31 3
41 -5 37 -8 -6 -8 -2 0 14 13 24 23 28 15 6z m-1339 -195 c10 -12 25 -18 32
-16 7 3 13 0 13 -6 0 -7 7 -3 15 8 14 19 14 18 15 -3 0 -13 4 -23 9 -23 20 0
41 12 35 21 -3 5 2 6 11 3 13 -5 13 -9 3 -22 -9 -11 -9 -14 -1 -9 7 4 17 0 23
-10 10 -16 10 -15 5 4 -5 18 -2 20 15 16 11 -3 22 -9 25 -13 3 -5 15 -6 28 -4
12 2 16 2 10 -2 -22 -10 -14 -26 8 -19 16 5 19 4 14 -5 -6 -9 -4 -11 5 -5 7 4
16 2 20 -5 6 -9 12 -9 28 1 17 10 23 10 37 -4 20 -21 26 -21 19 -2 -5 11 -2
13 10 9 12 -5 13 -10 5 -26 -9 -17 -8 -19 9 -14 11 4 23 2 27 -4 5 -7 12 -5
21 7 13 17 14 17 20 -4 3 -13 9 -23 13 -24 3 0 17 -2 31 -4 37 -4 66 -12 89
-24 11 -6 24 -10 28 -9 4 1 18 -3 31 -10 12 -7 22 -9 22 -5 0 4 5 2 12 -5 8
-8 8 -15 0 -25 -7 -8 -9 -17 -5 -20 3 -4 0 -15 -8 -24 -12 -16 -12 -17 2 -6 9
7 20 9 24 5 5 -4 5 1 2 11 -4 12 -3 16 4 11 6 -3 8 -17 4 -33 -5 -20 -4 -23 6
-14 16 16 49 -5 42 -26 -3 -10 0 -9 7 3 10 15 14 16 22 5 7 -10 8 -8 3 8 -7
27 11 40 20 13 3 -11 11 -20 16 -20 13 0 55 -40 43 -41 -5 0 -21 -3 -36 -5
-16 -3 -28 -1 -28 5 0 5 -7 11 -14 14 -10 4 -13 1 -10 -7 3 -8 -3 -16 -15 -19
-14 -3 -18 -1 -14 9 3 9 -2 14 -16 14 -23 0 -29 -16 -9 -22 7 -3 8 -7 2 -11
-5 -3 -16 -2 -24 3 -11 7 -11 11 -1 24 15 18 4 43 -11 28 -6 -6 -17 -8 -24 -5
-8 3 -14 0 -14 -6 0 -6 -5 -11 -11 -11 -5 0 -7 5 -4 10 3 6 -1 10 -9 10 -9 0
-16 -5 -16 -11 0 -8 -5 -8 -15 1 -8 7 -15 18 -15 25 0 14 -52 15 -62 1 -4 -6
-13 -4 -23 4 -16 13 -75 20 -75 9 0 -4 17 -10 38 -13 20 -3 49 -8 65 -11 15
-2 27 0 27 6 0 6 4 7 10 4 18 -11 -13 -45 -35 -39 -11 4 -24 7 -30 8 -5 0 -14
6 -18 11 -5 6 -5 0 -2 -12 5 -17 2 -23 -9 -23 -19 0 -20 -5 -4 -33 7 -12 12
-35 13 -51 0 -16 6 -31 13 -34 7 -2 10 -13 6 -28 -5 -20 -3 -23 12 -17 13 5
15 3 9 -8 -21 -37 -27 -40 -41 -22 -13 17 -14 17 -7 -1 4 -14 3 -17 -6 -12 -7
5 -21 0 -33 -11 -21 -18 -21 -18 -14 2 5 15 4 17 -5 8 -19 -19 -1 -31 40 -26
34 5 41 2 51 -18 10 -20 10 -22 -1 -11 -19 17 -34 15 -19 -3 11 -13 10 -14 -4
-9 -19 7 -22 -11 -3 -20 6 -3 2 -3 -9 -1 -15 4 -24 0 -28 -12 -9 -22 -7 -29 5
-26 5 2 9 -2 9 -7 0 -7 6 -8 17 -2 24 14 74 -5 66 -25 -4 -10 -13 -13 -30 -8
-18 4 -24 2 -20 -7 2 -7 10 -12 16 -11 6 2 11 -3 11 -10 0 -6 5 -4 11 6 6 9
14 15 20 12 5 -4 9 0 9 7 0 9 3 9 10 -2 6 -10 4 -22 -6 -37 -14 -22 -13 -22
12 -13 33 13 31 14 30 -12 -1 -16 -7 -22 -19 -20 -9 2 -17 -2 -17 -7 0 -6 11
-10 25 -9 14 1 25 8 25 15 0 18 14 23 30 11 13 -8 12 -9 -2 -5 -13 5 -16 0
-14 -20 2 -13 8 -28 15 -33 9 -5 8 -9 -4 -14 -11 -4 -15 -13 -12 -26 6 -25 0
-25 -26 -2 -14 12 -18 12 -11 2 12 -20 12 -69 -1 -67 -5 1 -14 -8 -20 -20 -5
-13 -15 -23 -22 -23 -20 0 -25 -19 -10 -34 12 -13 16 -12 27 9 7 14 17 22 22
19 4 -3 8 0 8 5 0 6 6 11 14 11 8 0 17 6 20 13 4 6 4 -3 1 -21 -3 -20 -1 -31
5 -27 6 3 10 12 10 19 0 8 7 19 15 26 18 15 20 -1 3 -18 -9 -9 -9 -15 0 -24 9
-9 12 -8 12 4 0 8 7 21 15 28 9 7 13 15 10 18 -3 3 -1 10 4 16 4 6 11 20 15
31 6 16 5 18 -5 8 -7 -7 -17 -13 -22 -13 -16 0 26 34 46 37 23 4 31 10 33 24
3 23 7 22 13 -6 4 -21 16 -34 39 -44 33 -15 38 -26 23 -50 -7 -11 -13 -10 -33
3 -22 14 -25 14 -25 1 0 -8 9 -15 19 -15 19 0 25 -31 12 -64 -5 -14 -9 -14
-22 -4 -9 7 -13 8 -9 2 8 -14 -14 -64 -29 -64 -18 0 -27 -32 -12 -42 10 -6 8
-8 -4 -8 -10 0 -19 1 -21 3 -2 1 -20 -10 -39 -25 -20 -15 -37 -26 -39 -25 -3
1 1 -3 7 -8 11 -10 2 -55 -11 -55 -4 0 -3 5 1 12 5 7 3 8 -5 4 -7 -5 -10 -14
-7 -22 7 -17 -6 -18 -22 -2 -9 9 -12 7 -12 -10 0 -24 -15 -30 -23 -9 -3 7 -6
5 -6 -5 -1 -15 -10 -17 -58 -13 -32 2 -101 6 -153 10 -52 3 -117 7 -145 10
-27 2 -95 7 -150 10 -213 12 -295 24 -295 41 0 8 5 14 11 14 6 0 8 8 4 18 -3
11 3 39 14 63 19 41 20 69 2 40 -6 -9 -11 -10 -15 -2 -4 6 -2 11 3 11 6 0 11
10 10 23 0 19 15 86 29 127 3 8 7 26 9 40 2 14 8 37 14 51 7 17 7 34 -1 53 -7
19 -7 25 1 20 6 -4 9 1 8 12 -2 11 4 34 13 52 10 18 12 32 6 32 -6 0 -5 6 2
15 12 15 21 110 12 129 -8 16 -8 86 0 86 4 0 7 31 6 68 -1 38 2 74 6 80 4 7 5
20 2 30 -4 10 1 27 9 38 17 22 20 48 4 38 -7 -4 -6 3 2 17 7 13 12 36 10 51
-1 14 3 29 8 33 6 3 8 17 5 31 -5 19 -1 31 16 46 16 15 21 29 18 49 -5 34 2
36 27 9z m2241 -292 c4 -6 9 -84 10 -172 3 -173 10 -256 24 -320 5 -23 16 -95
25 -161 20 -143 50 -299 64 -337 6 -15 8 -35 5 -43 -4 -8 -2 -15 3 -15 5 0 15
-17 21 -37 10 -33 9 -39 -14 -62 -16 -16 -28 -21 -32 -14 -10 14 -73 23 -94
12 -10 -6 -19 -5 -23 1 -4 6 -11 7 -17 4 -10 -6 -196 -13 -458 -17 -105 -2
-105 -2 -102 22 1 17 -2 22 -12 18 -10 -4 -13 -1 -9 9 3 7 10 14 17 15 6 0 18
2 26 3 8 2 41 7 73 10 32 4 56 10 53 13 -3 3 -49 7 -103 8 -151 4 -142 2 -136
28 4 19 3 20 -7 5 -10 -17 -13 -16 -37 7 -15 13 -30 22 -35 19 -4 -3 -8 3 -8
12 0 10 -3 14 -7 11 -3 -4 -13 -1 -21 6 -13 9 -14 9 -8 0 4 -7 2 -13 -4 -13
-6 0 -13 7 -16 15 -4 8 -11 12 -17 8 -6 -4 -8 0 -4 10 3 10 2 17 -3 17 -6 0
-10 -6 -11 -12 0 -7 -5 -2 -10 11 -7 18 -13 21 -21 13 -8 -8 -17 -3 -34 18
-31 36 -30 39 10 36 27 -2 33 0 29 12 -5 12 -2 12 18 2 13 -7 43 -14 67 -15
39 -3 42 -1 36 19 -6 21 -6 21 19 -2 18 -17 27 -20 32 -11 5 8 4 10 -3 5 -17
-10 -15 6 4 32 11 16 22 21 35 17 10 -4 19 -2 19 3 0 5 16 25 35 45 19 20 35
42 35 49 0 10 -2 10 -9 -1 -7 -11 -12 -8 -25 11 -13 20 -23 25 -47 22 -18 -2
-28 0 -24 6 3 6 -2 10 -13 10 -11 0 -31 9 -45 20 -14 11 -31 20 -37 20 -7 0
-10 7 -6 16 9 22 -3 56 -16 48 -7 -4 -7 -9 0 -13 7 -4 8 -12 1 -21 -8 -13 -11
-13 -20 3 -5 9 -17 17 -25 17 -8 0 -17 7 -20 15 -7 18 -31 20 -37 3 -3 -7 -4
3 -3 23 1 29 5 35 21 34 11 -1 19 -8 18 -16 -2 -8 9 -19 22 -26 14 -6 25 -7
25 -3 0 5 -6 10 -12 13 -7 2 -10 8 -5 12 4 5 12 4 18 -2 8 -8 20 -8 35 -3 16
6 24 6 24 -1 0 -6 4 -8 9 -5 5 4 12 0 14 -6 4 -9 6 -9 6 -1 1 6 -6 19 -15 28
-9 8 -13 22 -10 30 6 15 -9 20 -51 16 -13 -1 -23 3 -23 9 0 5 3 10 8 11 45 4
77 11 88 20 8 7 13 6 17 -3 3 -10 8 -9 18 4 12 15 20 16 53 7 36 -10 40 -9 67
20 15 17 23 31 17 31 -6 0 -21 -12 -34 -27 l-23 -27 4 27 c4 22 2 27 -15 27
-11 0 -20 5 -20 11 0 9 -4 9 -13 0 -11 -8 -18 -6 -32 9 -10 11 -24 20 -32 20
-7 0 -13 4 -13 9 0 5 -6 8 -12 8 -19 -2 -138 35 -138 42 0 4 -10 8 -22 8 -47
4 -70 14 -64 28 4 10 -7 16 -40 21 -24 3 -47 11 -51 18 -3 6 -3 8 2 4 4 -4 14
-3 21 3 8 6 21 9 29 5 8 -3 15 -2 15 2 0 12 228 0 249 -13 5 -3 12 -1 15 4 4
5 31 8 62 7 30 -1 58 2 61 7 3 5 9 3 14 -4 6 -9 9 -10 9 -2 0 8 9 9 30 3 20
-6 29 -5 27 3 -2 12 62 17 69 5 3 -4 20 -1 39 6 23 10 37 11 41 5 3 -6 15 -9
25 -6 11 3 19 1 19 -5 0 -6 7 -8 14 -5 10 4 13 1 9 -8 -4 -12 0 -13 28 -3 19
6 39 15 46 20 23 18 24 -13 1 -32 -13 -11 -18 -19 -11 -20 6 0 15 5 18 10 15
24 27 8 22 -27 -6 -36 -5 -37 9 -18 8 11 13 30 11 43 -4 21 -3 22 14 6 11 -10
25 -13 41 -9 l23 7 -23 -17 c-12 -9 -27 -13 -32 -10 -6 3 -10 3 -10 0 0 -10
28 -35 39 -35 5 0 13 -4 16 -10 4 -7 -3 -7 -19 0 -14 5 -26 6 -26 2 0 -4 -4
-1 -9 6 -7 11 -9 11 -14 -2 -4 -9 -2 -16 3 -16 6 0 10 -5 10 -11 0 -6 -7 -9
-15 -6 -8 4 -17 2 -20 -3 -3 -5 -12 -7 -20 -3 -8 3 -15 0 -15 -7 0 -6 4 -9 9
-6 11 7 23 -22 15 -36 -4 -6 -10 -5 -15 3 -6 11 -9 10 -15 -4 -3 -9 -11 -14
-18 -11 -6 3 -2 -2 8 -10 27 -22 32 -21 50 19 16 34 47 47 60 26 4 -5 -4 -7
-16 -4 -13 3 -20 2 -15 -2 4 -5 -5 -21 -20 -37 -14 -15 -23 -31 -20 -35 4 -3
17 3 28 16 22 24 40 24 48 0 4 -12 2 -12 -12 0 -18 14 -22 5 -9 -17 5 -7 15
-10 23 -7 8 2 20 1 28 -4 12 -8 12 -12 -3 -26 -9 -10 -14 -20 -11 -23 3 -4 10
0 15 8 5 8 14 15 20 15 6 0 20 11 30 25 l18 25 7 -28 c7 -27 8 -27 21 -8 8 11
21 18 29 15 8 -4 15 -1 15 5 0 6 -5 11 -10 11 -6 0 -8 12 -4 28 4 21 3 24 -5
12 -13 -19 -14 -9 -2 23 8 21 7 24 -9 20 -10 -3 -16 -11 -14 -18 6 -15 -14
-60 -23 -52 -2 3 0 15 7 26 7 14 7 21 0 21 -20 0 -25 -5 -22 -20 3 -12 1 -12
-9 -3 -9 9 -10 19 -2 35 12 26 -8 55 -28 42 -8 -4 -8 -1 -1 12 5 11 8 42 7 69
-2 28 3 68 11 90 10 31 10 42 1 55 -11 13 -10 13 6 1 12 -9 17 -10 17 -2 0 7
5 9 12 5 7 -4 8 -3 4 4 -8 13 20 72 34 72 5 0 12 -5 16 -12z"/>
<path d="M874 9278 c1 -24 7 -49 14 -56 7 -8 10 -18 6 -23 -3 -5 2 -16 10 -25
10 -9 16 -33 16 -59 0 -34 6 -48 26 -66 14 -13 35 -34 46 -46 31 -33 40 -18
19 30 -10 23 -24 67 -31 97 -7 30 -18 60 -24 65 -26 23 -56 75 -56 99 0 15 -6
26 -13 26 -10 0 -13 -13 -13 -42z"/>
<path d="M4355 8879 c-2 -8 -11 -63 -19 -124 -12 -98 -82 -365 -96 -365 -4 0
-59 181 -74 245 -3 11 -3 -5 0 -36 3 -31 12 -81 19 -110 18 -67 18 -184 1
-264 -12 -55 -14 -58 -20 -30 -9 36 -45 119 -51 114 -2 -2 6 -31 17 -64 11
-33 25 -108 31 -167 6 -60 13 -108 17 -108 4 0 8 27 9 61 3 110 30 241 77 371
7 20 25 79 40 130 35 125 78 425 49 347z"/>
<path d="M774 8393 c4 -21 7 -52 7 -69 -1 -45 14 -59 118 -104 103 -45 172
-53 91 -11 -75 40 -150 110 -177 168 -30 62 -48 70 -39 16z"/>
<path d="M6123 7838 c18 -74 18 -98 3 -130 -12 -22 -15 -45 -11 -69 7 -42 -5
-55 -36 -39 -29 16 -145 31 -175 24 l-25 -6 29 -18 c16 -10 66 -30 110 -45 45
-15 102 -40 127 -56 25 -16 50 -29 55 -29 6 0 10 -4 10 -10 0 -5 4 -10 9 -10
14 0 5 38 -13 56 -9 8 -17 25 -17 37 -2 40 -9 91 -20 162 -7 39 -12 82 -11 98
1 15 -3 27 -8 27 -6 0 -10 7 -10 15 0 8 -5 15 -11 15 -7 0 -9 -9 -6 -22z"/>
<path d="M4181 5590 c-1 -140 -4 -279 -7 -309 -3 -29 -1 -63 4 -75 11 -23 20
-55 28 -101 4 -24 63 -95 79 -95 2 0 -1 12 -6 28 -17 53 -59 208 -70 261 -6
30 -15 165 -19 300 l-7 246 -2 -255z"/>
<path d="M1976 4366 c-22 -34 -19 -101 6 -138 10 -14 18 -30 18 -35 0 -5 11
-16 25 -23 13 -7 22 -17 19 -22 -3 -4 2 -8 10 -8 9 0 16 -6 16 -14 0 -8 7 -17
16 -20 8 -3 12 -2 9 4 -9 15 5 12 21 -5 9 -8 12 -19 9 -25 -6 -9 8 -14 28 -11
4 0 7 -6 7 -14 0 -9 8 -19 18 -22 9 -4 23 -15 30 -24 7 -11 20 -16 30 -13 14
5 14 4 3 -4 -12 -9 -12 -12 1 -26 9 -8 18 -12 22 -9 3 4 6 1 6 -6 0 -8 7 -10
20 -6 12 4 20 2 20 -5 0 -6 -4 -8 -10 -5 -5 3 -10 -1 -10 -10 0 -12 6 -15 22
-10 17 6 20 4 15 -9 -4 -11 -3 -15 4 -11 5 4 15 2 22 -3 18 -14 58 4 51 23 -4
9 1 17 10 21 15 6 15 8 -1 20 -17 12 -17 13 -1 14 11 0 15 5 12 15 -4 8 -1 15
5 15 21 0 11 19 -11 22 -15 2 -23 10 -23 22 0 10 -9 23 -20 27 -11 4 -16 8
-11 8 5 1 3 7 -3 14 -6 8 -7 17 -3 22 4 4 -3 4 -15 1 -14 -5 -23 -3 -23 3 0 6
4 11 9 11 5 0 11 9 14 20 6 25 -8 26 -22 3 -10 -17 -10 -17 -11 0 0 13 -6 16
-24 13 -19 -3 -23 -1 -19 11 4 10 2 14 -4 10 -14 -9 -43 19 -44 41 0 14 -2 13
-9 -3 -8 -19 -9 -19 -9 2 -1 23 -21 43 -21 21 -1 -9 -4 -8 -13 3 -7 9 -18 14
-26 11 -8 -3 -11 0 -7 7 8 12 -18 44 -28 34 -3 -4 -6 -1 -6 6 0 7 -6 11 -14 8
-8 -3 -23 3 -34 14 -12 10 -25 19 -30 19 -5 0 -13 10 -18 21 -10 21 -10 21
-28 -5z"/>
<path d="M1900 4090 c0 -5 6 -10 13 -10 9 0 9 -2 0 -8 -22 -14 -10 -159 20
-236 15 -37 29 -85 31 -105 1 -20 8 -49 14 -64 7 -16 12 -32 12 -36 0 -4 9
-16 20 -26 11 -10 17 -21 15 -25 -6 -10 20 -86 29 -82 16 6 26 0 26 -15 0 -15
-2 -16 -10 -3 -7 12 -12 12 -22 2 -9 -9 -9 -12 1 -12 8 0 11 -6 7 -15 -3 -8
-2 -14 2 -13 15 3 42 -15 42 -27 0 -20 24 -24 44 -9 11 7 22 11 27 9 4 -3 10
-1 14 5 3 5 1 10 -6 10 -6 0 -9 8 -6 19 3 15 0 17 -17 13 -18 -5 -19 -3 -8 10
10 13 10 17 -3 22 -8 3 -15 9 -14 13 4 25 -3 53 -12 51 -6 -2 -14 3 -17 11 -2
8 0 11 6 7 5 -3 12 1 16 9 3 9 0 15 -10 15 -12 0 -14 7 -9 30 4 20 3 30 -5 30
-7 0 -9 8 -5 20 7 21 -10 28 -18 8 -3 -8 -6 -6 -6 5 -1 9 -9 17 -18 17 -14 0
-15 2 -4 9 9 6 10 11 2 15 -6 4 -11 12 -11 17 0 6 5 7 12 3 8 -5 9 -2 5 10 -4
10 -7 20 -7 22 0 2 -7 4 -16 4 -12 0 -15 6 -11 21 4 16 3 18 -8 9 -10 -8 -13
-7 -11 7 0 10 7 23 14 28 20 16 -48 135 -77 135 -6 0 -11 5 -11 10 0 6 4 10
10 10 5 0 7 7 4 15 -4 8 -10 13 -14 10 -5 -3 -6 10 -3 30 4 28 2 35 -11 35 -9
0 -16 -4 -16 -10z"/>
<path d="M1918 2541 c-21 -21 -26 -220 -4 -202 7 6 16 8 19 4 4 -3 13 0 21 6
10 8 16 9 21 1 3 -5 15 -10 26 -10 11 0 19 -7 19 -17 1 -14 4 -12 16 7 14 23
14 23 9 2 -4 -14 0 -31 13 -47 19 -23 20 -24 36 -6 9 9 16 28 16 41 0 21 -1
22 -17 7 -17 -15 -18 -13 -18 17 0 19 5 33 13 33 6 0 12 -6 12 -14 0 -7 4 -13
9 -13 10 0 6 148 -3 158 -3 3 -16 -3 -27 -14 -22 -19 -22 -19 -11 2 9 18 8 25
-10 40 -12 11 -18 13 -14 6 4 -7 1 -24 -8 -37 -18 -28 -20 -39 -6 -30 6 3 10
1 10 -5 0 -7 -7 -10 -15 -6 -9 3 -15 0 -15 -9 0 -8 -5 -15 -10 -15 -13 0 16
71 33 82 9 5 8 8 -4 8 -8 0 -25 -17 -37 -37 -18 -32 -22 -34 -22 -15 0 12 -6
22 -14 22 -9 0 -16 12 -18 28 -3 27 -4 28 -20 13z"/>
<path d="M3570 1870 c-8 -14 -8 -26 0 -40 9 -16 8 -18 -5 -14 -8 4 -15 1 -15
-5 0 -6 4 -11 9 -11 5 0 4 -11 -2 -25 -7 -14 -16 -25 -20 -25 -4 0 -3 9 3 20
16 30 2 45 -19 21 -10 -11 -22 -17 -26 -13 -5 4 -5 -1 -2 -10 4 -10 2 -18 -3
-18 -6 0 -10 -5 -10 -11 0 -6 9 -8 23 -4 22 6 22 6 2 -10 -11 -9 -19 -19 -19
-23 1 -4 0 -11 -1 -17 -2 -5 -7 -33 -12 -62 -9 -48 -8 -52 13 -64 13 -6 22
-15 19 -18 -2 -4 0 -13 5 -20 10 -17 33 -4 26 15 -3 7 -1 16 4 19 6 4 11 -2
12 -12 0 -10 2 -22 3 -28 2 -5 3 -15 4 -21 0 -6 14 -10 30 -9 26 1 29 -1 20
-17 -12 -23 -31 -24 -22 -1 4 11 3 14 -5 9 -7 -4 -12 -15 -12 -25 0 -46 64
-57 83 -13 10 23 18 27 55 28 27 0 50 8 65 21 12 11 31 23 42 25 11 3 29 9 39
14 14 5 17 4 12 -4 -4 -7 -2 -12 4 -12 6 0 9 -4 6 -9 -4 -5 3 -7 14 -4 12 3
20 0 20 -6 0 -7 -5 -9 -12 -5 -7 4 -8 3 -4 -4 14 -23 65 -13 98 19 l33 30 -33
-16 c-40 -20 -52 -13 -27 15 14 15 15 20 4 20 -9 0 -10 3 -4 8 6 4 19 21 29
37 l19 30 -25 -23 c-25 -23 -44 -30 -105 -39 -18 -3 -38 -11 -44 -19 -17 -20
-32 -17 -20 4 6 11 23 19 47 20 40 3 54 8 54 21 0 9 -74 -2 -111 -17 -22 -9
-30 -7 -51 13 -18 16 -29 20 -36 13 -7 -7 -16 -7 -29 0 -13 8 -22 7 -35 -5
-16 -14 -17 -13 -8 16 6 22 5 44 -6 72 -7 23 -11 45 -8 50 2 5 0 17 -5 28 -6
10 -12 40 -15 66 -5 53 -16 73 -16 29 0 -20 -3 -25 -9 -15 -5 7 -6 22 -4 32 7
25 -3 24 -17 -1z"/>
</g>
</svg>
