<?xml version="1.0" encoding="iso-8859-1"?>
<!-- Generator: Adobe Illustrator 19.0.0, SVG Export Plug-In . SVG Version: 6.00 Build 0)  -->
<svg version="1.1" id="Layer_1" xmlns="http://www.w3.org/2000/svg" xmlns:xlink="http://www.w3.org/1999/xlink" x="0px" y="0px"
	 viewBox="0 0 496 496" style="enable-background:new 0 0 496 496;" xml:space="preserve">
<g>
	<path style="fill:#FFC114;" d="M432,154.4C432,68.8,349.6,0,248,0S64,68.8,64,154.4c0,22.4,5.6,44,16,64h-0.8L152,320l0,0v44.8
		c0,43.2,44.8,77.6,96,77.6s96-35.2,96-77.6V320l0,0l72-101.6h-0.8C425.6,198.4,432,176.8,432,154.4z"/>
</g>
<path style="fill:#FCA12A;" d="M249.6,442.4c51.2,0,94.4-35.2,94.4-77.6V320l0,0l72-101.6h-0.8c10.4-19.2,16-40.8,16-63.2
	C432,68.8,350.4,0,248.8,0"/>
<path style="fill:#6D6DB2;" d="M184,408v64c0,12.8,9.6,24,23.2,24h82.4c12.8,0,23.2-10.4,23.2-24v-64H184z"/>
<path style="fill:#4C4C8C;" d="M288.8,496c12.8,0,23.2-10.4,23.2-24v-64H184"/>
<g>
	<path style="fill:#7777BF;" d="M312,428c0,2.4-1.6,4-4,4H188c-2.4,0-4-1.6-4-4l0,0c0-2.4,1.6-4,4-4h120
		C310.4,424,312,425.6,312,428L312,428z"/>
	<path style="fill:#7777BF;" d="M312,444c0,2.4-1.6,4-4,4H188c-2.4,0-4-1.6-4-4l0,0c0-2.4,1.6-4,4-4h120
		C310.4,440,312,441.6,312,444L312,444z"/>
	<path style="fill:#7777BF;" d="M312,460c0,2.4-1.6,4-4,4H188c-2.4,0-4-1.6-4-4l0,0c0-2.4,1.6-4,4-4h120
		C310.4,456,312,457.6,312,460L312,460z"/>
</g>
<g>
	<path style="fill:#FFEB97;" d="M248,204L248,204c-31.2,0-60.8,12-83.2,34.4l13.6,13.6c18.4-18.4,43.2-28.8,69.6-28.8
		s51.2,10.4,69.6,28.8l13.6-13.6C308.8,216,279.2,204,248,204z"/>
	<path style="fill:#FFEB97;" d="M256,168c0,4.8-3.2,8-8,8l0,0c-4.8,0-8-3.2-8-8V88c0-4.8,3.2-8,8-8l0,0c4.8,0,8,3.2,8,8V168z"/>
	<path style="fill:#FFEB97;" d="M303.2,178.4c-1.6,4.8-7.2,7.2-12,5.6l0,0c-4.8-1.6-7.2-7.2-5.6-12l28-73.6c1.6-4.8,7.2-7.2,12-5.6
		l0,0c4.8,1.6,7.2,7.2,5.6,12L303.2,178.4z"/>
	<path style="fill:#FFEB97;" d="M342.4,206.4c-3.2,4-9.6,4-12.8,0.8l0,0c-4-3.2-4-9.6-0.8-12.8l52-59.2c3.2-4,9.6-4,12.8-0.8l0,0
		c4,3.2,4,9.6,0.8,12.8L342.4,206.4z"/>
	<path style="fill:#FFEB97;" d="M192.8,178.4c1.6,4.8,7.2,7.2,12,5.6l0,0c4.8-1.6,7.2-7.2,5.6-12l-28-73.6c-1.6-4.8-7.2-7.2-12-5.6
		l0,0c-4.8,1.6-7.2,7.2-5.6,12L192.8,178.4z"/>
	<path style="fill:#FFEB97;" d="M153.6,206.4c3.2,4,9.6,4,12.8,0.8l0,0c4-3.2,4-9.6,0.8-12.8l-52-59.2c-3.2-4-9.6-4-12.8-0.8l0,0
		c-4,3.2-4,9.6-0.8,12.8L153.6,206.4z"/>
	<circle style="fill:#FFEB97;" cx="248" cy="259.2" r="15.2"/>
</g>
<g>
</g>
<g>
</g>
<g>
</g>
<g>
</g>
<g>
</g>
<g>
</g>
<g>
</g>
<g>
</g>
<g>
</g>
<g>
</g>
<g>
</g>
<g>
</g>
<g>
</g>
<g>
</g>
<g>
</g>
</svg>
