<svg width="470" height="155" viewBox="0 0 470 155" fill="none" xmlns="http://www.w3.org/2000/svg">
<g filter="url(#filter0_d_305_14)">
<path d="M372.305 22.0999C369.519 17.9923 368.126 15.9385 366.298 14.4524C364.679 13.1368 362.818 12.1505 360.82 11.549C358.564 10.8697 356.082 10.8697 351.119 10.8697H94.9583C92.158 10.8697 90.7579 10.8697 89.6884 11.4147C88.7475 11.8941 87.9826 12.659 87.5033 13.5998C86.9583 14.6693 86.9583 16.0695 86.9583 18.8697V48.7742H390.397L372.305 22.0999Z" fill="url(#paint0_linear_305_14)"/>
<path d="M96.7795 62.2517C104.733 62.2517 111.958 60.2538 117.21 56.9974C122.455 53.7457 125.8 49.1883 125.8 44.0688C125.8 38.9492 122.455 34.3919 117.21 31.1402C111.958 27.8837 104.733 25.8859 96.7795 25.8859C88.8258 25.8859 81.6012 27.8837 76.3489 31.1402C71.1041 34.3919 67.7588 38.9492 67.7588 44.0688C67.7588 49.1883 71.1041 53.7457 76.3489 56.9974C81.6012 60.2538 88.8258 62.2517 96.7795 62.2517Z" fill="#C6255C" stroke="#D32A60"/>
<g filter="url(#filter1_d_305_14)">
<path d="M224.018 34.2533V25.0883H226.41V32.3163H230.31V34.2533H224.018ZM231.657 34.2533V25.0883H238.17V26.9343H233.984V28.6763H237.91V30.5093H233.984V32.4073H238.17V34.2533H231.657ZM244.529 29.6253L248.039 34.2533H245.244L243.177 31.3673L241.097 34.2533H238.328L241.825 29.6253L238.393 25.0883H241.175L243.177 27.8963L245.205 25.0883H247.974L244.529 29.6253ZM248.675 34.2533V25.0883H251.067V34.2533H248.675Z" fill="white"/>
</g>
<rect x="6.5" y="49.5" width="457" height="97" rx="24.5" fill="white" stroke="url(#paint1_linear_305_14)"/>
<path d="M66.0022 91.27C64.0222 91.27 62.3022 90.87 60.8422 90.07C59.4022 89.27 58.2922 88.12 57.5122 86.62C56.7522 85.1 56.3722 83.31 56.3722 81.25C56.3722 78.91 56.7822 76.86 57.6022 75.1C58.4422 73.34 59.6122 71.98 61.1122 71.02C62.6322 70.06 64.3922 69.58 66.3922 69.58C68.3722 69.58 70.0822 69.98 71.5222 70.78C72.9822 71.58 74.1022 72.74 74.8822 74.26C75.6622 75.76 76.0522 77.54 76.0522 79.6C76.0522 81.94 75.6322 83.99 74.7922 85.75C73.9722 87.51 72.8022 88.87 71.2822 89.83C69.7822 90.79 68.0222 91.27 66.0022 91.27ZM66.0022 88.69C67.4222 88.69 68.6422 88.33 69.6622 87.61C70.7022 86.89 71.5022 85.85 72.0622 84.49C72.6222 83.11 72.9022 81.48 72.9022 79.6C72.9022 77.2 72.3422 75.36 71.2222 74.08C70.1022 72.8 68.5022 72.16 66.4222 72.16C64.2822 72.16 62.5922 72.97 61.3522 74.59C60.1322 76.21 59.5222 78.44 59.5222 81.28C59.5222 83.66 60.0822 85.49 61.2022 86.77C62.3222 88.05 63.9222 88.69 66.0022 88.69ZM87.8667 76C89.5067 76 90.7467 76.43 91.5867 77.29C92.4467 78.15 92.8767 79.42 92.8767 81.1C92.8767 81.5 92.8667 81.8 92.8467 82L92.1567 91H89.1267L89.8167 82.15C89.8367 82.01 89.8467 81.8 89.8467 81.52C89.8467 79.48 88.8667 78.46 86.9067 78.46C85.6667 78.46 84.6767 78.83 83.9367 79.57C83.2167 80.31 82.8067 81.34 82.7067 82.66L82.0467 91H79.0167L80.6967 69.85H83.7267L83.0367 78.37C83.5367 77.61 84.2067 77.03 85.0467 76.63C85.8867 76.21 86.8267 76 87.8667 76ZM99.7919 87.43L99.5819 89.86C99.5019 90.8 99.2719 91.65 98.8919 92.41C98.5319 93.19 97.9519 93.95 97.1519 94.69L95.9219 93.64C96.8219 92.76 97.3819 91.88 97.6019 91H95.9219L96.2219 87.43H99.7919ZM111.57 91L113.22 69.85H116.31L114.66 91H111.57ZM142.169 69.85L140.519 91H137.519L137.699 88.81C137.219 89.57 136.559 90.16 135.719 90.58C134.899 91 133.989 91.21 132.989 91.21C131.769 91.21 130.679 90.93 129.719 90.37C128.779 89.79 128.049 88.97 127.529 87.91C127.009 86.85 126.749 85.61 126.749 84.19C126.749 82.57 127.039 81.14 127.619 79.9C128.199 78.66 129.009 77.7 130.049 77.02C131.109 76.34 132.319 76 133.679 76C134.779 76 135.739 76.23 136.559 76.69C137.379 77.15 138.009 77.81 138.449 78.67L139.139 69.85H142.169ZM133.859 88.81C135.199 88.81 136.249 88.31 137.009 87.31C137.769 86.29 138.149 84.91 138.149 83.17C138.149 81.63 137.799 80.46 137.099 79.66C136.399 78.84 135.399 78.43 134.099 78.43C132.759 78.43 131.709 78.93 130.949 79.93C130.189 80.93 129.809 82.3 129.809 84.04C129.809 85.56 130.159 86.74 130.859 87.58C131.579 88.4 132.579 88.81 133.859 88.81ZM151.473 91.21C150.053 91.21 148.813 90.92 147.753 90.34C146.693 89.76 145.873 88.93 145.293 87.85C144.713 86.77 144.423 85.52 144.423 84.1C144.423 82.46 144.723 81.03 145.323 79.81C145.943 78.59 146.803 77.65 147.903 76.99C149.023 76.33 150.313 76 151.773 76C153.213 76 154.463 76.3 155.523 76.9C156.583 77.48 157.403 78.31 157.983 79.39C158.563 80.45 158.853 81.7 158.853 83.14C158.853 84.78 158.543 86.21 157.923 87.43C157.323 88.63 156.463 89.56 155.343 90.22C154.243 90.88 152.953 91.21 151.473 91.21ZM151.503 88.81C152.883 88.81 153.943 88.29 154.683 87.25C155.423 86.21 155.793 84.81 155.793 83.05C155.793 81.55 155.443 80.41 154.743 79.63C154.063 78.83 153.083 78.43 151.803 78.43C150.403 78.43 149.333 78.95 148.593 79.99C147.853 81.03 147.483 82.43 147.483 84.19C147.483 85.71 147.823 86.86 148.503 87.64C149.203 88.42 150.203 88.81 151.503 88.81ZM170.427 76C172.067 76 173.307 76.43 174.147 77.29C175.007 78.15 175.437 79.42 175.437 81.1C175.437 81.5 175.427 81.8 175.407 82L174.717 91H171.687L172.377 82.15C172.397 82.01 172.407 81.8 172.407 81.52C172.407 79.48 171.427 78.46 169.467 78.46C168.227 78.46 167.237 78.83 166.497 79.57C165.777 80.31 165.367 81.34 165.267 82.66L164.607 91H161.577L162.747 76.36H165.717L165.537 78.46C166.037 77.68 166.707 77.08 167.547 76.66C168.407 76.22 169.367 76 170.427 76ZM180.162 78.34L180.042 69.85H183.582L182.202 78.34H180.162ZM190.085 85.57L190.055 86.08C190.055 87.94 190.975 88.87 192.815 88.87C193.235 88.87 193.685 88.84 194.165 88.78L193.835 91.06C193.355 91.16 192.855 91.21 192.335 91.21C190.615 91.21 189.295 90.8 188.375 89.98C187.475 89.14 187.025 87.94 187.025 86.38C187.025 86.06 187.035 85.82 187.055 85.66L187.595 78.7H184.775L184.955 76.36H187.775L188.135 71.95H191.165L190.805 76.36H194.825L194.645 78.7H190.625L190.085 85.57ZM212.942 76C214.582 76 215.822 76.43 216.662 77.29C217.522 78.15 217.952 79.42 217.952 81.1C217.952 81.5 217.942 81.8 217.922 82L217.232 91H214.202L214.892 82.15C214.912 82.01 214.922 81.8 214.922 81.52C214.922 79.48 213.942 78.46 211.982 78.46C210.742 78.46 209.752 78.83 209.012 79.57C208.292 80.31 207.882 81.34 207.782 82.66L207.122 91H204.092L205.772 69.85H208.802L208.112 78.37C208.612 77.61 209.282 77.03 210.122 76.63C210.962 76.21 211.902 76 212.942 76ZM228.527 76C232.147 76 233.957 77.71 233.957 81.13C233.957 81.53 233.947 81.83 233.927 82.03L233.237 91H230.327L230.507 88.69C230.087 89.51 229.497 90.14 228.737 90.58C227.997 91 227.147 91.21 226.187 91.21C224.727 91.21 223.517 90.82 222.557 90.04C221.617 89.24 221.147 88.22 221.147 86.98C221.147 85.88 221.437 85 222.017 84.34C222.597 83.68 223.517 83.2 224.777 82.9C226.057 82.6 227.767 82.45 229.907 82.45H230.987L231.047 81.7C231.127 80.56 230.927 79.73 230.447 79.21C229.987 78.67 229.207 78.4 228.107 78.4C227.327 78.4 226.517 78.53 225.677 78.79C224.837 79.05 224.017 79.43 223.217 79.93L222.437 77.8C223.197 77.26 224.137 76.83 225.257 76.51C226.377 76.17 227.467 76 228.527 76ZM226.907 88.96C227.947 88.96 228.827 88.59 229.547 87.85C230.287 87.11 230.697 86.16 230.777 85L230.837 84.16H229.997C228.437 84.16 227.237 84.25 226.397 84.43C225.577 84.59 224.997 84.85 224.657 85.21C224.337 85.57 224.177 86.06 224.177 86.68C224.177 87.38 224.417 87.94 224.897 88.36C225.397 88.76 226.067 88.96 226.907 88.96ZM248.792 76.39H251.882L244.382 91H241.652L236.492 76.39H239.582L243.302 87.55L248.792 76.39ZM259.682 76C261.602 76 263.112 76.57 264.212 77.71C265.312 78.85 265.862 80.51 265.862 82.69C265.862 83.15 265.832 83.65 265.772 84.19H255.392C255.412 85.67 255.792 86.82 256.532 87.64C257.272 88.44 258.342 88.84 259.742 88.84C261.442 88.84 262.982 88.3 264.362 87.22L265.142 89.35C264.522 89.91 263.702 90.36 262.682 90.7C261.662 91.04 260.622 91.21 259.562 91.21C258.122 91.21 256.862 90.92 255.782 90.34C254.702 89.76 253.862 88.93 253.262 87.85C252.682 86.77 252.392 85.52 252.392 84.1C252.392 82.52 252.692 81.12 253.292 79.9C253.912 78.66 254.772 77.7 255.872 77.02C256.992 76.34 258.262 76 259.682 76ZM259.802 78.22C258.602 78.22 257.632 78.58 256.892 79.3C256.172 80.02 255.712 81.07 255.512 82.45H263.252C263.292 81.05 263.002 80 262.382 79.3C261.762 78.58 260.902 78.22 259.802 78.22ZM294.141 76C295.661 76 296.811 76.43 297.591 77.29C298.391 78.15 298.791 79.41 298.791 81.07C298.791 81.47 298.781 81.77 298.761 81.97L298.071 91H295.041L295.731 82.09C295.751 81.93 295.761 81.7 295.761 81.4C295.761 79.44 294.901 78.46 293.181 78.46C292.041 78.46 291.141 78.83 290.481 79.57C289.841 80.29 289.471 81.36 289.371 82.78L288.741 91H285.711L286.401 82.12C286.421 81.96 286.431 81.72 286.431 81.4C286.431 80.4 286.211 79.66 285.771 79.18C285.351 78.7 284.701 78.46 283.821 78.46C282.701 78.46 281.811 78.83 281.151 79.57C280.511 80.29 280.141 81.36 280.041 82.78L279.381 91H276.351L277.521 76.39H280.491L280.341 78.37C281.381 76.79 282.891 76 284.871 76C285.971 76 286.881 76.23 287.601 76.69C288.321 77.15 288.841 77.82 289.161 78.7C289.681 77.84 290.371 77.18 291.231 76.72C292.091 76.24 293.061 76 294.141 76ZM316.151 76.36L315.011 91H312.041L312.221 88.78C311.721 89.56 311.051 90.16 310.211 90.58C309.391 91 308.471 91.21 307.451 91.21C305.831 91.21 304.601 90.78 303.761 89.92C302.921 89.04 302.501 87.76 302.501 86.08C302.501 85.72 302.511 85.45 302.531 85.27L303.251 76.36H306.281L305.561 85.09L305.531 85.63C305.531 87.71 306.501 88.75 308.441 88.75C309.621 88.75 310.561 88.38 311.261 87.64C311.961 86.9 312.361 85.88 312.461 84.58L313.121 76.36H316.151ZM325.981 91.21C324.561 91.21 323.321 90.92 322.261 90.34C321.201 89.76 320.381 88.94 319.801 87.88C319.221 86.8 318.931 85.55 318.931 84.13C318.931 82.49 319.241 81.06 319.861 79.84C320.481 78.6 321.371 77.65 322.531 76.99C323.691 76.33 325.051 76 326.611 76C327.711 76 328.721 76.17 329.641 76.51C330.561 76.83 331.361 77.29 332.041 77.89L330.961 80.05C329.561 78.97 328.141 78.43 326.701 78.43C325.221 78.43 324.081 78.93 323.281 79.93C322.481 80.93 322.081 82.33 322.081 84.13C322.081 85.61 322.441 86.76 323.161 87.58C323.901 88.38 324.931 88.78 326.251 88.78C327.011 88.78 327.721 88.65 328.381 88.39C329.041 88.13 329.711 87.72 330.391 87.16L331.141 89.35C330.521 89.93 329.751 90.39 328.831 90.73C327.931 91.05 326.981 91.21 325.981 91.21ZM342.503 76C344.143 76 345.383 76.43 346.223 77.29C347.083 78.15 347.513 79.42 347.513 81.1C347.513 81.5 347.503 81.8 347.483 82L346.793 91H343.763L344.453 82.15C344.473 82.01 344.483 81.8 344.483 81.52C344.483 79.48 343.503 78.46 341.543 78.46C340.303 78.46 339.313 78.83 338.573 79.57C337.853 80.31 337.443 81.34 337.343 82.66L336.683 91H333.653L335.333 69.85H338.363L337.673 78.37C338.173 77.61 338.843 77.03 339.683 76.63C340.523 76.21 341.463 76 342.503 76ZM363.128 85.57L363.098 86.08C363.098 87.94 364.018 88.87 365.858 88.87C366.278 88.87 366.728 88.84 367.208 88.78L366.878 91.06C366.398 91.16 365.898 91.21 365.378 91.21C363.658 91.21 362.338 90.8 361.418 89.98C360.518 89.14 360.068 87.94 360.068 86.38C360.068 86.06 360.078 85.82 360.098 85.66L360.638 78.7H357.818L357.998 76.36H360.818L361.178 71.95H364.208L363.848 76.36H367.868L367.688 78.7H363.668L363.128 85.57ZM369.274 91L370.444 76.36H373.474L372.304 91H369.274ZM370.714 69.82H374.224L373.954 72.97H370.474L370.714 69.82ZM394.28 76C395.8 76 396.95 76.43 397.73 77.29C398.53 78.15 398.93 79.41 398.93 81.07C398.93 81.47 398.92 81.77 398.9 81.97L398.21 91H395.18L395.87 82.09C395.89 81.93 395.9 81.7 395.9 81.4C395.9 79.44 395.04 78.46 393.32 78.46C392.18 78.46 391.28 78.83 390.62 79.57C389.98 80.29 389.61 81.36 389.51 82.78L388.88 91H385.85L386.54 82.12C386.56 81.96 386.57 81.72 386.57 81.4C386.57 80.4 386.35 79.66 385.91 79.18C385.49 78.7 384.84 78.46 383.96 78.46C382.84 78.46 381.95 78.83 381.29 79.57C380.65 80.29 380.28 81.36 380.18 82.78L379.52 91H376.49L377.66 76.39H380.63L380.48 78.37C381.52 76.79 383.03 76 385.01 76C386.11 76 387.02 76.23 387.74 76.69C388.46 77.15 388.98 77.82 389.3 78.7C389.82 77.84 390.51 77.18 391.37 76.72C392.23 76.24 393.2 76 394.28 76ZM409.329 76C411.249 76 412.759 76.57 413.859 77.71C414.959 78.85 415.509 80.51 415.509 82.69C415.509 83.15 415.479 83.65 415.419 84.19H405.039C405.059 85.67 405.439 86.82 406.179 87.64C406.919 88.44 407.989 88.84 409.389 88.84C411.089 88.84 412.629 88.3 414.009 87.22L414.789 89.35C414.169 89.91 413.349 90.36 412.329 90.7C411.309 91.04 410.269 91.21 409.209 91.21C407.769 91.21 406.509 90.92 405.429 90.34C404.349 89.76 403.509 88.93 402.909 87.85C402.329 86.77 402.039 85.52 402.039 84.1C402.039 82.52 402.339 81.12 402.939 79.9C403.559 78.66 404.419 77.7 405.519 77.02C406.639 76.34 407.909 76 409.329 76ZM409.449 78.22C408.249 78.22 407.279 78.58 406.539 79.3C405.819 80.02 405.359 81.07 405.159 82.45H412.899C412.939 81.05 412.649 80 412.029 79.3C411.409 78.58 410.549 78.22 409.449 78.22ZM121.209 118.57L121.179 119.08C121.179 120.94 122.099 121.87 123.939 121.87C124.359 121.87 124.809 121.84 125.289 121.78L124.959 124.06C124.479 124.16 123.979 124.21 123.459 124.21C121.739 124.21 120.419 123.8 119.499 122.98C118.599 122.14 118.149 120.94 118.149 119.38C118.149 119.06 118.159 118.82 118.179 118.66L118.719 111.7H115.899L116.079 109.36H118.899L119.259 104.95H122.289L121.929 109.36H125.949L125.769 111.7H121.749L121.209 118.57ZM134.136 124.21C132.716 124.21 131.476 123.92 130.416 123.34C129.356 122.76 128.536 121.93 127.956 120.85C127.376 119.77 127.086 118.52 127.086 117.1C127.086 115.46 127.386 114.03 127.986 112.81C128.606 111.59 129.466 110.65 130.566 109.99C131.686 109.33 132.976 109 134.436 109C135.876 109 137.126 109.3 138.186 109.9C139.246 110.48 140.066 111.31 140.646 112.39C141.226 113.45 141.516 114.7 141.516 116.14C141.516 117.78 141.206 119.21 140.586 120.43C139.986 121.63 139.126 122.56 138.006 123.22C136.906 123.88 135.616 124.21 134.136 124.21ZM134.166 121.81C135.546 121.81 136.606 121.29 137.346 120.25C138.086 119.21 138.456 117.81 138.456 116.05C138.456 114.55 138.106 113.41 137.406 112.63C136.726 111.83 135.746 111.43 134.466 111.43C133.066 111.43 131.996 111.95 131.256 112.99C130.516 114.03 130.146 115.43 130.146 117.19C130.146 118.71 130.486 119.86 131.166 120.64C131.866 121.42 132.866 121.81 134.166 121.81ZM160.829 109C162.049 109 163.129 109.29 164.069 109.87C165.029 110.45 165.769 111.28 166.289 112.36C166.809 113.42 167.069 114.66 167.069 116.08C167.069 117.68 166.779 119.1 166.199 120.34C165.619 121.56 164.799 122.51 163.739 123.19C162.699 123.87 161.499 124.21 160.139 124.21C159.019 124.21 158.049 123.98 157.229 123.52C156.409 123.06 155.779 122.39 155.339 121.51L154.709 129.4H151.679L153.239 109.36H156.269L156.089 111.43C156.589 110.67 157.249 110.08 158.069 109.66C158.909 109.22 159.829 109 160.829 109ZM159.719 121.81C161.059 121.81 162.099 121.31 162.839 120.31C163.599 119.31 163.979 117.93 163.979 116.17C163.979 114.65 163.629 113.48 162.929 112.66C162.229 111.84 161.229 111.43 159.929 111.43C158.609 111.43 157.569 111.94 156.809 112.96C156.049 113.96 155.669 115.33 155.669 117.07C155.669 118.61 156.019 119.79 156.719 120.61C157.419 121.41 158.419 121.81 159.719 121.81ZM176.974 109C180.594 109 182.404 110.71 182.404 114.13C182.404 114.53 182.394 114.83 182.374 115.03L181.684 124H178.774L178.954 121.69C178.534 122.51 177.944 123.14 177.184 123.58C176.444 124 175.594 124.21 174.634 124.21C173.174 124.21 171.964 123.82 171.004 123.04C170.064 122.24 169.594 121.22 169.594 119.98C169.594 118.88 169.884 118 170.464 117.34C171.044 116.68 171.964 116.2 173.224 115.9C174.504 115.6 176.214 115.45 178.354 115.45H179.434L179.494 114.7C179.574 113.56 179.374 112.73 178.894 112.21C178.434 111.67 177.654 111.4 176.554 111.4C175.774 111.4 174.964 111.53 174.124 111.79C173.284 112.05 172.464 112.43 171.664 112.93L170.884 110.8C171.644 110.26 172.584 109.83 173.704 109.51C174.824 109.17 175.914 109 176.974 109ZM175.354 121.96C176.394 121.96 177.274 121.59 177.994 120.85C178.734 120.11 179.144 119.16 179.224 118L179.284 117.16H178.444C176.884 117.16 175.684 117.25 174.844 117.43C174.024 117.59 173.444 117.85 173.104 118.21C172.784 118.57 172.624 119.06 172.624 119.68C172.624 120.38 172.864 120.94 173.344 121.36C173.844 121.76 174.514 121.96 175.354 121.96ZM192.559 124.21C191.139 124.21 189.899 123.92 188.839 123.34C187.779 122.76 186.959 121.94 186.379 120.88C185.799 119.8 185.509 118.55 185.509 117.13C185.509 115.49 185.819 114.06 186.439 112.84C187.059 111.6 187.949 110.65 189.109 109.99C190.269 109.33 191.629 109 193.189 109C194.289 109 195.299 109.17 196.219 109.51C197.139 109.83 197.939 110.29 198.619 110.89L197.539 113.05C196.139 111.97 194.719 111.43 193.279 111.43C191.799 111.43 190.659 111.93 189.859 112.93C189.059 113.93 188.659 115.33 188.659 117.13C188.659 118.61 189.019 119.76 189.739 120.58C190.479 121.38 191.509 121.78 192.829 121.78C193.589 121.78 194.299 121.65 194.959 121.39C195.619 121.13 196.289 120.72 196.969 120.16L197.719 122.35C197.099 122.93 196.329 123.39 195.409 123.73C194.509 124.05 193.559 124.21 192.559 124.21ZM214.571 109.39L207.131 116.44L214.031 124H210.281L203.801 117.04L203.261 124H200.231L201.911 102.85H204.941L203.891 115.96L210.761 109.39H214.571ZM241.329 109C242.849 109 243.999 109.43 244.779 110.29C245.579 111.15 245.979 112.41 245.979 114.07C245.979 114.47 245.969 114.77 245.949 114.97L245.259 124H242.229L242.919 115.09C242.939 114.93 242.949 114.7 242.949 114.4C242.949 112.44 242.089 111.46 240.369 111.46C239.229 111.46 238.329 111.83 237.669 112.57C237.029 113.29 236.659 114.36 236.559 115.78L235.929 124H232.899L233.589 115.12C233.609 114.96 233.619 114.72 233.619 114.4C233.619 113.4 233.399 112.66 232.959 112.18C232.539 111.7 231.889 111.46 231.009 111.46C229.889 111.46 228.999 111.83 228.339 112.57C227.699 113.29 227.329 114.36 227.229 115.78L226.569 124H223.539L224.709 109.39H227.679L227.529 111.37C228.569 109.79 230.079 109 232.059 109C233.159 109 234.069 109.23 234.789 109.69C235.509 110.15 236.029 110.82 236.349 111.7C236.869 110.84 237.559 110.18 238.419 109.72C239.279 109.24 240.249 109 241.329 109ZM260.818 109.39H263.908L253.618 129.4H250.558L253.528 123.61L248.518 109.39H251.608L255.328 120.55L260.818 109.39ZM277.134 118.57L277.104 119.08C277.104 120.94 278.024 121.87 279.864 121.87C280.284 121.87 280.734 121.84 281.214 121.78L280.884 124.06C280.404 124.16 279.904 124.21 279.384 124.21C277.664 124.21 276.344 123.8 275.424 122.98C274.524 122.14 274.074 120.94 274.074 119.38C274.074 119.06 274.084 118.82 274.104 118.66L274.644 111.7H271.824L272.004 109.36H274.824L275.184 104.95H278.214L277.854 109.36H281.874L281.694 111.7H277.674L277.134 118.57ZM292.13 109C293.77 109 295.01 109.43 295.85 110.29C296.71 111.15 297.14 112.42 297.14 114.1C297.14 114.5 297.13 114.8 297.11 115L296.42 124H293.39L294.08 115.15C294.1 115.01 294.11 114.8 294.11 114.52C294.11 112.48 293.13 111.46 291.17 111.46C289.93 111.46 288.94 111.83 288.2 112.57C287.48 113.31 287.07 114.34 286.97 115.66L286.31 124H283.28L284.96 102.85H287.99L287.3 111.37C287.8 110.61 288.47 110.03 289.31 109.63C290.15 109.21 291.09 109 292.13 109ZM300.515 124L301.685 109.36H304.715L303.545 124H300.515ZM301.955 102.82H305.465L305.195 105.97H301.715L301.955 102.82ZM316.581 109C318.221 109 319.461 109.43 320.301 110.29C321.161 111.15 321.591 112.42 321.591 114.1C321.591 114.5 321.581 114.8 321.561 115L320.871 124H317.841L318.531 115.15C318.551 115.01 318.561 114.8 318.561 114.52C318.561 112.48 317.581 111.46 315.621 111.46C314.381 111.46 313.391 111.83 312.651 112.57C311.931 113.31 311.521 114.34 311.421 115.66L310.761 124H307.731L308.901 109.36H311.871L311.691 111.46C312.191 110.68 312.861 110.08 313.701 109.66C314.561 109.22 315.521 109 316.581 109ZM339.726 109.36L338.676 122.74C338.496 125.08 337.786 126.81 336.546 127.93C335.326 129.05 333.586 129.61 331.326 129.61C328.746 129.61 326.526 128.97 324.666 127.69L325.746 125.5C326.726 126.12 327.646 126.56 328.506 126.82C329.386 127.1 330.346 127.24 331.386 127.24C334.046 127.24 335.476 125.83 335.676 123.01L335.826 121.21C335.346 121.95 334.686 122.53 333.846 122.95C333.006 123.35 332.076 123.55 331.056 123.55C329.796 123.55 328.686 123.28 327.726 122.74C326.766 122.18 326.026 121.39 325.506 120.37C324.986 119.35 324.726 118.17 324.726 116.83C324.726 115.31 325.016 113.96 325.596 112.78C326.176 111.58 326.986 110.65 328.026 109.99C329.086 109.33 330.306 109 331.686 109C332.806 109 333.786 109.24 334.626 109.72C335.466 110.18 336.106 110.83 336.546 111.67L336.726 109.36H339.726ZM331.896 121.15C333.236 121.15 334.286 120.68 335.046 119.74C335.826 118.8 336.216 117.51 336.216 115.87C336.216 114.43 335.856 113.33 335.136 112.57C334.436 111.81 333.436 111.43 332.136 111.43C330.776 111.43 329.706 111.91 328.926 112.87C328.166 113.81 327.786 115.11 327.786 116.77C327.786 118.17 328.136 119.25 328.836 120.01C329.556 120.77 330.576 121.15 331.896 121.15ZM348.128 124.21C345.768 124.21 343.718 123.59 341.978 122.35L343.058 120.16C344.618 121.32 346.328 121.9 348.188 121.9C349.228 121.9 350.008 121.74 350.528 121.42C351.068 121.1 351.338 120.64 351.338 120.04C351.338 119.46 351.068 119.02 350.528 118.72C349.988 118.4 349.148 118.08 348.008 117.76C346.968 117.46 346.128 117.17 345.488 116.89C344.848 116.61 344.298 116.2 343.838 115.66C343.378 115.1 343.148 114.38 343.148 113.5C343.148 112.14 343.688 111.05 344.768 110.23C345.868 109.41 347.318 109 349.118 109C350.178 109 351.198 109.17 352.178 109.51C353.158 109.85 353.968 110.31 354.608 110.89L353.528 113.02C352.128 111.88 350.658 111.31 349.118 111.31C348.118 111.31 347.348 111.48 346.808 111.82C346.268 112.16 345.998 112.66 345.998 113.32C345.998 113.9 346.258 114.34 346.778 114.64C347.318 114.94 348.158 115.25 349.298 115.57C350.338 115.87 351.178 116.16 351.818 116.44C352.458 116.72 353.008 117.14 353.468 117.7C353.928 118.24 354.158 118.96 354.158 119.86C354.158 121.22 353.608 122.29 352.508 123.07C351.428 123.83 349.968 124.21 348.128 124.21Z" fill="#303052"/>
<ellipse cx="96.7795" cy="44.0688" rx="28.5208" ry="17.6829" fill="white"/>
<path d="M79.6897 26.3063C84.4011 26.3063 88.6904 25.1233 91.8179 23.1842C94.9378 21.2499 96.969 18.5125 96.969 15.4032C96.969 12.2938 94.9378 9.55642 91.8179 7.62206C88.6904 5.68301 84.4011 4.5 79.6897 4.5C74.9782 4.5 70.689 5.68301 67.5615 7.62206C64.4415 9.55642 62.4104 12.2938 62.4104 15.4032C62.4104 18.5125 64.4415 21.2499 67.5615 23.1842C70.689 25.1233 74.9782 26.3063 79.6897 26.3063Z" fill="white" stroke="#E02F64"/>
</g>
<defs>
<filter id="filter0_d_305_14" x="0" y="0" width="470" height="155" filterUnits="userSpaceOnUse" color-interpolation-filters="sRGB">
<feFlood flood-opacity="0" result="BackgroundImageFix"/>
<feColorMatrix in="SourceAlpha" type="matrix" values="0 0 0 0 0 0 0 0 0 0 0 0 0 0 0 0 0 0 127 0" result="hardAlpha"/>
<feOffset dy="2"/>
<feGaussianBlur stdDeviation="3"/>
<feColorMatrix type="matrix" values="0 0 0 0 0 0 0 0 0 0 0 0 0 0 0 0 0 0 0.25 0"/>
<feBlend mode="normal" in2="BackgroundImageFix" result="effect1_dropShadow_305_14"/>
<feBlend mode="normal" in="SourceGraphic" in2="effect1_dropShadow_305_14" result="shape"/>
</filter>
<filter id="filter1_d_305_14" x="222.018" y="24.0883" width="31.0496" height="13.165" filterUnits="userSpaceOnUse" color-interpolation-filters="sRGB">
<feFlood flood-opacity="0" result="BackgroundImageFix"/>
<feColorMatrix in="SourceAlpha" type="matrix" values="0 0 0 0 0 0 0 0 0 0 0 0 0 0 0 0 0 0 127 0" result="hardAlpha"/>
<feOffset dy="1"/>
<feGaussianBlur stdDeviation="1"/>
<feColorMatrix type="matrix" values="0 0 0 0 0 0 0 0 0 0 0 0 0 0 0 0 0 0 0.25 0"/>
<feBlend mode="normal" in2="BackgroundImageFix" result="effect1_dropShadow_305_14"/>
<feBlend mode="normal" in="SourceGraphic" in2="effect1_dropShadow_305_14" result="shape"/>
</filter>
<linearGradient id="paint0_linear_305_14" x1="238.678" y1="10.8697" x2="238.678" y2="48.7742" gradientUnits="userSpaceOnUse">
<stop offset="0.411458" stop-color="#DF2E63"/>
<stop offset="1" stop-color="#B81F56"/>
</linearGradient>
<linearGradient id="paint1_linear_305_14" x1="235" y1="49" x2="235" y2="147" gradientUnits="userSpaceOnUse">
<stop stop-color="#BA2157"/>
<stop offset="1" stop-color="white" stop-opacity="0"/>
</linearGradient>
</defs>
</svg>
