<svg width="475" height="155" viewBox="0 0 475 155" fill="none" xmlns="http://www.w3.org/2000/svg">
<g filter="url(#filter0_d_314_3)">
<path d="M157.986 36.9203C160.772 32.8126 162.165 30.7588 163.993 29.2728C165.612 27.9571 167.473 26.9708 169.471 26.3694C171.727 25.6901 174.209 25.6901 179.172 25.6901H318C322.912 25.6901 325.367 25.6901 327.604 26.3569C329.585 26.9473 331.432 27.9159 333.044 29.209C334.865 30.6695 336.262 32.6893 339.056 36.7288L348.703 50.6796H148.653L157.986 36.9203Z" fill="url(#paint0_linear_314_3)"/>
<path d="M377.229 62.8712C369.19 62.8712 361.887 60.8518 356.579 57.5604C351.277 54.2738 347.897 49.6681 347.897 44.4953C347.897 39.3224 351.277 34.7168 356.579 31.4302C361.887 28.1388 369.19 26.1194 377.229 26.1194C385.269 26.1194 392.572 28.1388 397.88 31.4302C403.181 34.7168 406.562 39.3224 406.562 44.4953C406.562 49.6681 403.181 54.2738 397.88 57.5604C392.572 60.8518 385.269 62.8712 377.229 62.8712Z" fill="#2FC0DF" stroke="#2274BE"/>
<g filter="url(#filter1_d_314_3)">
<path d="M232.146 32.5857H236.579C237.593 32.5857 238.381 32.8457 238.945 33.3657C239.508 33.8771 239.79 34.5921 239.79 35.5107C239.79 36.4207 239.504 37.1357 238.932 37.6557C238.368 38.1757 237.584 38.4357 236.579 38.4357H234.538V41.7507H232.146V32.5857ZM236.254 36.6417C236.696 36.6417 237.021 36.5507 237.229 36.3687C237.445 36.1867 237.554 35.9051 237.554 35.5237C237.554 35.1424 237.445 34.8607 237.229 34.6787C237.021 34.4881 236.696 34.3927 236.254 34.3927H234.538V36.6417H236.254ZM247.147 41.7507L246.328 39.8527H242.272L241.453 41.7507H239.048L243.325 32.5857H245.223L249.513 41.7507H247.147ZM243.039 38.0587H245.561L244.3 35.1207L243.039 38.0587ZM254.196 41.8677C252.87 41.8677 251.861 41.5297 251.167 40.8537C250.483 40.1777 250.14 39.1897 250.14 37.8897V32.5857H252.48V37.9807C252.48 38.6394 252.628 39.1464 252.922 39.5017C253.217 39.8571 253.642 40.0347 254.196 40.0347C254.751 40.0347 255.176 39.8571 255.47 39.5017C255.765 39.1464 255.912 38.6394 255.912 37.9807V32.5857H258.265V37.8897C258.265 39.1811 257.914 40.1691 257.212 40.8537C256.519 41.5297 255.514 41.8677 254.196 41.8677ZM260.079 41.7507V32.5857H262.471V39.8137H266.371V41.7507H260.079Z" fill="white"/>
</g>
<rect x="-0.5" y="0.5" width="462" height="95.8272" rx="24.5" transform="matrix(-1 0 0 1 468 49.2531)" fill="white" stroke="url(#paint1_linear_314_3)"/>
<ellipse rx="28.8321" ry="17.8759" transform="matrix(-1 0 0 1 377.229 44.4953)" fill="white"/>
<path d="M394.506 26.5335C389.744 26.5335 385.409 25.3377 382.249 23.3781C379.095 21.4232 377.044 18.6574 377.044 15.5167C377.044 12.3761 379.095 9.61024 382.249 7.65533C385.409 5.69572 389.744 4.5 394.506 4.5C399.268 4.5 403.603 5.69572 406.764 7.65533C409.917 9.61024 411.969 12.3761 411.969 15.5167C411.969 18.6574 409.917 21.4232 406.764 23.3781C403.603 25.3377 399.268 26.5335 394.506 26.5335Z" fill="white" stroke="#2272BD"/>
</g>
<defs>
<filter id="filter0_d_314_3" x="0" y="0" width="475" height="154.08" filterUnits="userSpaceOnUse" color-interpolation-filters="sRGB">
<feFlood flood-opacity="0" result="BackgroundImageFix"/>
<feColorMatrix in="SourceAlpha" type="matrix" values="0 0 0 0 0 0 0 0 0 0 0 0 0 0 0 0 0 0 127 0" result="hardAlpha"/>
<feOffset dy="2"/>
<feGaussianBlur stdDeviation="3"/>
<feColorMatrix type="matrix" values="0 0 0 0 0 0 0 0 0 0 0 0 0 0 0 0 0 0 0.25 0"/>
<feBlend mode="normal" in2="BackgroundImageFix" result="effect1_dropShadow_314_3"/>
<feBlend mode="normal" in="SourceGraphic" in2="effect1_dropShadow_314_3" result="shape"/>
</filter>
<filter id="filter1_d_314_3" x="230.146" y="31.5857" width="38.2256" height="13.282" filterUnits="userSpaceOnUse" color-interpolation-filters="sRGB">
<feFlood flood-opacity="0" result="BackgroundImageFix"/>
<feColorMatrix in="SourceAlpha" type="matrix" values="0 0 0 0 0 0 0 0 0 0 0 0 0 0 0 0 0 0 127 0" result="hardAlpha"/>
<feOffset dy="1"/>
<feGaussianBlur stdDeviation="1"/>
<feColorMatrix type="matrix" values="0 0 0 0 0 0 0 0 0 0 0 0 0 0 0 0 0 0 0.25 0"/>
<feBlend mode="normal" in2="BackgroundImageFix" result="effect1_dropShadow_314_3"/>
<feBlend mode="normal" in="SourceGraphic" in2="effect1_dropShadow_314_3" result="shape"/>
</filter>
<linearGradient id="paint0_linear_314_3" x1="248.678" y1="25.6901" x2="248.678" y2="50.6796" gradientUnits="userSpaceOnUse">
<stop offset="0.411458" stop-color="#2EBFDF"/>
<stop offset="1" stop-color="#1F66B8"/>
</linearGradient>
<linearGradient id="paint1_linear_314_3" x1="231.5" y1="0" x2="231.5" y2="96.8272" gradientUnits="userSpaceOnUse">
<stop stop-color="#268AC8"/>
<stop offset="1" stop-color="white" stop-opacity="0"/>
</linearGradient>
</defs>
</svg>
